<svg width="234" height="225" viewBox="0 0 234 225" fill="none" xmlns="http://www.w3.org/2000/svg">
<g clip-path="url(#clip0_104_88)">
<g style="mix-blend-mode:multiply">
<path fill-rule="evenodd" clip-rule="evenodd" d="M35.3029 69.599L35.2431 69.569L8.58057 54.1758V23.2695L8.61048 23.2396L35.3029 7.84636L35.3628 7.87631L62.0253 23.2695V54.1758L61.9654 54.2057L35.3029 69.599ZM8.79004 54.0261L35.3029 69.3294L61.7859 54.0261V23.3893L35.3029 8.08594L8.79004 23.3893V54.0261Z" fill="url(#paint0_linear_104_88)"/>
<path fill-rule="evenodd" clip-rule="evenodd" d="M88.5083 69.599L88.4484 69.569L61.7859 54.1758V23.2695L61.8457 23.2396L88.5083 7.84636L88.5681 7.87631L115.231 23.2695V54.1758L115.171 54.2057L88.5083 69.599ZM62.0253 54.0261L88.5083 69.3294L115.021 54.0261V23.3893L88.5083 8.08594L62.0253 23.3893V54.0261Z" fill="url(#paint1_linear_104_88)"/>
<path fill-rule="evenodd" clip-rule="evenodd" d="M141.743 69.599L141.683 69.569L115.021 54.1758V23.2695L115.051 23.2396L141.743 7.84636L141.803 7.87631L168.466 23.2695V54.1758L168.406 54.2057L141.743 69.599ZM115.23 54.0261L141.743 69.3294L168.226 54.0261V23.3893L141.743 8.08594L115.23 23.3893V54.0261Z" fill="url(#paint2_linear_104_88)"/>
<path fill-rule="evenodd" clip-rule="evenodd" d="M194.949 69.599L194.889 69.569L168.226 54.1758V23.2695L168.286 23.2396L194.949 7.84636L195.009 7.87631L221.671 23.2695V54.1758L221.611 54.2057L194.949 69.599ZM168.466 54.0261L194.949 69.3294L221.462 54.0261V23.3893L194.949 8.08594L168.466 23.3893V54.0261Z" fill="url(#paint3_linear_104_88)"/>
<path d="M254.707 65.556L248.184 69.3294L221.671 54.0261V23.4193L248.184 8.11589L254.707 11.8893V11.6198L248.244 7.87631L248.184 7.84636L221.492 23.2396L221.462 23.2695V54.1758L248.124 69.569L248.184 69.599L254.707 65.8255V65.556Z" fill="url(#paint4_linear_104_88)"/>
<path fill-rule="evenodd" clip-rule="evenodd" d="M61.9055 115.719L61.8456 115.689L35.1831 100.296V69.4193L35.243 69.3594L61.9055 53.9662L61.9653 53.9961L88.6278 69.4193V100.296L88.568 100.326L61.9055 115.719ZM35.4225 100.146L61.9055 115.449L88.3884 100.146V69.5091L61.9055 54.2057L35.4225 69.5091V100.146Z" fill="url(#paint5_linear_104_88)"/>
<path fill-rule="evenodd" clip-rule="evenodd" d="M115.111 115.719L115.051 115.689L88.3884 100.296V69.4193L88.4483 69.3594L115.111 53.9662L115.171 53.9961L141.863 69.4193V100.296L141.803 100.326L115.111 115.719ZM88.5979 100.146L115.111 115.449L141.594 100.146V69.5091L115.111 54.2057L88.5979 69.5091V100.146Z" fill="url(#paint6_linear_104_88)"/>
<path fill-rule="evenodd" clip-rule="evenodd" d="M168.346 115.719L168.286 115.689L141.624 100.296V69.4193L141.684 69.3594L168.346 53.9662L168.406 53.9961L195.068 69.4193V100.296L195.009 100.326L168.346 115.719ZM141.863 100.146L168.346 115.449L194.859 100.146V69.5091L168.346 54.2057L141.863 69.5091V100.146Z" fill="url(#paint7_linear_104_88)"/>
<path fill-rule="evenodd" clip-rule="evenodd" d="M221.551 115.719L221.492 115.689L194.829 100.296V69.4193L194.889 69.3594L221.551 53.9662L221.611 53.9961L248.304 69.4193V100.296L248.244 100.326L221.551 115.719ZM195.039 100.146L221.551 115.449L248.034 100.146V69.5091L221.551 54.2057L195.039 69.5091V100.146Z" fill="url(#paint8_linear_104_88)"/>
<path fill-rule="evenodd" clip-rule="evenodd" d="M141.743 161.868L141.683 161.839L115.021 146.415V115.539L115.051 115.509L141.743 100.086L141.803 100.116L168.466 115.539V146.415L168.406 146.445L141.743 161.868ZM115.23 146.296L141.743 161.599L168.226 146.296V115.689L141.743 100.385L115.23 115.689V146.296Z" fill="url(#paint9_linear_104_88)"/>
<path fill-rule="evenodd" clip-rule="evenodd" d="M194.949 161.868L194.889 161.839L168.226 146.415V115.539L168.286 115.509L194.949 100.086L195.009 100.116L221.671 115.539V146.415L221.611 146.445L194.949 161.868ZM168.466 146.296L194.949 161.599L221.462 146.296V115.689L194.949 100.385L168.466 115.689V146.296Z" fill="url(#paint10_linear_104_88)"/>
<path d="M254.707 157.826L248.184 161.599L221.671 146.296V115.659L248.184 100.355L254.707 104.129V103.859L248.244 100.116L248.184 100.086L221.492 115.509L221.462 115.539V146.415L248.124 161.839L248.184 161.868L254.707 158.095V157.826Z" fill="url(#paint11_linear_104_88)"/>
<path fill-rule="evenodd" clip-rule="evenodd" d="M168.346 207.988L168.286 207.958L141.624 192.535V161.659L141.684 161.629L168.346 146.206L168.406 146.236L195.068 161.659V192.535L195.009 192.565L168.346 207.988ZM141.863 192.415L168.346 207.719L194.859 192.415V161.809L168.346 146.505L141.863 161.809V192.415Z" fill="url(#paint12_linear_104_88)"/>
<path fill-rule="evenodd" clip-rule="evenodd" d="M221.551 207.988L221.492 207.958L194.829 192.535V161.659L194.889 161.629L221.551 146.206L221.611 146.236L248.304 161.659V192.535L248.244 192.565L221.551 207.988ZM195.039 192.415L221.551 207.719L248.034 192.415V161.809L221.551 146.505L195.039 161.809V192.415Z" fill="url(#paint13_linear_104_88)"/>
<path fill-rule="evenodd" clip-rule="evenodd" d="M194.949 254.108L194.889 254.078L168.226 238.685V207.779L168.286 207.749L194.949 192.355L195.009 192.385L221.671 207.779V238.685L221.611 238.715L194.949 254.108ZM168.466 238.535L194.949 253.839L221.462 238.535V207.898L194.949 192.595L168.466 207.898V238.535Z" fill="url(#paint14_linear_104_88)"/>
<path d="M254.707 250.065L248.184 253.839L221.671 238.535V207.928L248.184 192.625L254.707 196.398V196.129L248.244 192.385L248.184 192.355L221.492 207.749L221.462 207.779V238.685L248.124 254.078L248.184 254.108L254.707 250.335V250.065Z" fill="url(#paint15_linear_104_88)"/>
<path d="M133.574 -41.5977V-15.3932L99.5202 4.3125L65.4365 -15.3932V-41.5977H64.2395V-14.7044L99.5202 5.69011L134.801 -14.7044V-41.5977H133.574Z" fill="url(#paint16_linear_104_88)"/>
<path d="M202.938 -41.5977V-15.3932L168.885 4.3125L134.801 -15.3932V-41.5977H133.574V-14.7044L168.885 5.69011L204.165 -14.7044V-41.5977H202.938Z" fill="url(#paint17_linear_104_88)"/>
<path d="M204.165 -15.3932V-41.5977H202.938V-14.7044L238.219 5.69011L254.707 -3.83333V-5.21094L238.219 4.3125L204.165 -15.3932Z" fill="url(#paint18_linear_104_88)"/>
<path fill-rule="evenodd" clip-rule="evenodd" d="M134.202 65.7956L98.8916 45.431V4.64194L134.202 -15.7526L169.483 4.64194V45.431L134.202 65.7956ZM100.118 44.7122L134.202 64.388L168.256 44.7122V5.33074L134.202 -14.375L100.118 5.33074V44.7122Z" fill="url(#paint19_linear_104_88)"/>
<path fill-rule="evenodd" clip-rule="evenodd" d="M203.537 65.7956L168.256 45.431V4.64194L203.537 -15.7526L238.818 4.64194V45.431L203.537 65.7956ZM169.483 44.7122L203.537 64.388L237.621 44.7122V5.33074L203.537 -14.375L169.483 5.33074V44.7122Z" fill="url(#paint20_linear_104_88)"/>
<path fill-rule="evenodd" clip-rule="evenodd" d="M168.885 125.931L133.574 105.536V64.7474L168.885 44.3828L204.165 64.7474V105.536L168.885 125.931ZM134.801 104.848L168.885 124.523L202.938 104.848V65.4661L168.885 45.7604L134.801 65.4661V104.848Z" fill="url(#paint21_linear_104_88)"/>
<path d="M254.707 115L238.219 124.523L204.165 104.848V65.4661L238.219 45.7604L254.707 55.2839V53.9063L238.219 44.3828L202.938 64.7474V105.536L238.219 125.931L254.707 116.408V115Z" fill="url(#paint22_linear_104_88)"/>
<path fill-rule="evenodd" clip-rule="evenodd" d="M203.537 306.277L168.256 285.883V245.124L203.537 224.729L238.818 245.124V285.883L203.537 306.277ZM169.483 285.194L203.537 304.9L237.621 285.194V245.813L203.537 226.137L169.483 245.813V285.194Z" fill="url(#paint23_linear_104_88)"/>
<path d="M8.67005 19.6758C6.66512 19.6758 5.01929 21.3229 5.01929 23.3594C5.01929 25.3659 6.66512 27.013 8.67005 27.013C10.7049 27.013 12.3507 25.3659 12.3507 23.3594C12.3507 21.3229 10.7049 19.6758 8.67005 19.6758Z" fill="url(#paint24_linear_104_88)"/>
<path d="M8.67023 56.3919C9.95697 56.3919 10.9744 55.3737 10.9744 54.0859C10.9744 52.8281 9.95697 51.8099 8.67023 51.8099C7.41341 51.8099 6.396 52.8281 6.396 54.0859C6.396 55.3737 7.41341 56.3919 8.67023 56.3919Z" fill="url(#paint25_linear_104_88)"/>
<path d="M35.3028 71.5456C36.4399 71.5456 37.3676 70.6172 37.3676 69.4792C37.3676 68.3411 36.4399 67.4128 35.3028 67.4128C34.1657 67.4128 33.238 68.3411 33.238 69.4792C33.238 70.6172 34.1657 71.5456 35.3028 71.5456Z" fill="url(#paint26_linear_104_88)"/>
<path d="M35.3029 9.04427C35.8714 9.04427 36.3502 8.5651 36.3502 7.96615C36.3502 7.36719 35.8714 6.91797 35.3029 6.91797C34.7044 6.91797 34.2256 7.36719 34.2256 7.96615C34.2256 8.5651 34.7044 9.04427 35.3029 9.04427Z" fill="url(#paint27_linear_104_88)"/>
<path d="M61.9055 25.4557C63.0725 25.4557 64.0002 24.4974 64.0002 23.3594C64.0002 22.1914 63.0725 21.2331 61.9055 21.2331C60.7384 21.2331 59.8108 22.1914 59.8108 23.3594C59.8108 24.4974 60.7384 25.4557 61.9055 25.4557Z" fill="url(#paint28_linear_104_88)"/>
<path d="M61.9054 50.4023C59.8706 50.4023 58.1948 52.0495 58.1948 54.0859C58.1948 56.1523 59.8706 57.7995 61.9054 57.7995C63.9403 57.7995 65.5861 56.1523 65.5861 54.0859C65.5861 52.0495 63.9403 50.4023 61.9054 50.4023Z" fill="url(#paint29_linear_104_88)"/>
<path d="M88.508 9.52343C89.3758 9.52343 90.064 8.83463 90.064 7.96614C90.064 7.09765 89.3758 6.40884 88.508 6.40884C87.6402 6.40884 86.9519 7.09765 86.9519 7.96614C86.9519 8.83463 87.6402 9.52343 88.508 9.52343Z" fill="url(#paint30_linear_104_88)"/>
<path d="M115.111 26.2044C116.697 26.2044 117.984 24.9466 117.984 23.3594C117.984 21.7721 116.697 20.4844 115.111 20.4844C113.525 20.4844 112.238 21.7721 112.238 23.3594C112.238 24.9466 113.525 26.2044 115.111 26.2044Z" fill="url(#paint31_linear_104_88)"/>
<path d="M115.111 57.53C117.026 57.53 118.552 56.0026 118.552 54.0859C118.552 52.1992 117.026 50.6719 115.111 50.6719C113.225 50.6719 111.699 52.1992 111.699 54.0859C111.699 56.0026 113.225 57.53 115.111 57.53Z" fill="url(#paint32_linear_104_88)"/>
<path d="M141.743 9.76302C142.731 9.76302 143.539 8.95442 143.539 7.96614C143.539 6.97786 142.731 6.16927 141.743 6.16927C140.756 6.16927 139.948 6.97786 139.948 7.96614C139.948 8.95442 140.756 9.76302 141.743 9.76302Z" fill="url(#paint33_linear_104_88)"/>
<path d="M168.346 25.3958C169.483 25.3958 170.411 24.4974 170.411 23.3594C170.411 22.2214 169.483 21.293 168.346 21.293C167.209 21.293 166.281 22.2214 166.281 23.3594C166.281 24.4974 167.209 25.3958 168.346 25.3958Z" fill="url(#paint34_linear_104_88)"/>
<path d="M168.346 55.5534C169.154 55.5534 169.812 54.8945 169.812 54.0859C169.812 53.2773 169.154 52.6185 168.346 52.6185C167.538 52.6185 166.88 53.2773 166.88 54.0859C166.88 54.8945 167.538 55.5534 168.346 55.5534Z" fill="url(#paint35_linear_104_88)"/>
<path d="M194.949 9.34374C195.727 9.34374 196.325 8.74478 196.325 7.96614C196.325 7.21744 195.727 6.58853 194.949 6.58853C194.2 6.58853 193.572 7.21744 193.572 7.96614C193.572 8.74478 194.2 9.34374 194.949 9.34374Z" fill="url(#paint36_linear_104_88)"/>
<path d="M221.551 25.5156C222.778 25.5156 223.736 24.5573 223.736 23.3594C223.736 22.1315 222.778 21.1732 221.551 21.1732C220.354 21.1732 219.397 22.1315 219.397 23.3594C219.397 24.5573 220.354 25.5156 221.551 25.5156Z" fill="url(#paint37_linear_104_88)"/>
<path d="M221.551 56.5716C222.928 56.5716 224.035 55.4635 224.035 54.0859C224.035 52.7383 222.928 51.6302 221.551 51.6302C220.205 51.6302 219.097 52.7383 219.097 54.0859C219.097 55.4635 220.205 56.5716 221.551 56.5716Z" fill="url(#paint38_linear_104_88)"/>
<path d="M35.3027 102.991C36.8289 102.991 38.0558 101.763 38.0558 100.236C38.0558 98.6784 36.8289 97.4505 35.3027 97.4505C33.7467 97.4505 32.5198 98.6784 32.5198 100.236C32.5198 101.763 33.7467 102.991 35.3027 102.991Z" fill="url(#paint39_linear_104_88)"/>
<path d="M88.508 68.0417C87.73 68.0417 87.1016 68.7005 87.1016 69.4792C87.1016 70.2578 87.73 70.8867 88.508 70.8867C89.2861 70.8867 89.9444 70.2578 89.9444 69.4792C89.9444 68.7005 89.2861 68.0417 88.508 68.0417Z" fill="url(#paint40_linear_104_88)"/>
<path d="M88.5081 102.871C89.9744 102.871 91.1414 101.673 91.1414 100.236C91.1414 98.7682 89.9744 97.6003 88.5081 97.6003C87.0717 97.6003 85.8748 98.7682 85.8748 100.236C85.8748 101.673 87.0717 102.871 88.5081 102.871Z" fill="url(#paint41_linear_104_88)"/>
<path d="M116.786 115.599C116.786 114.671 116.038 113.922 115.111 113.922C114.213 113.922 113.465 114.671 113.465 115.599C113.465 116.527 114.213 117.276 115.111 117.276C116.038 117.276 116.786 116.527 116.786 115.599Z" fill="url(#paint42_linear_104_88)"/>
<path d="M141.743 65.5859C139.589 65.5859 137.853 67.3229 137.853 69.4792C137.853 71.6354 139.589 73.3724 141.743 73.3724C143.868 73.3724 145.633 71.6354 145.633 69.4792C145.633 67.3229 143.868 65.5859 141.743 65.5859Z" fill="url(#paint43_linear_104_88)"/>
<path d="M194.949 72.3542C196.535 72.3542 197.851 71.0664 197.851 69.4792C197.851 67.8919 196.535 66.5742 194.949 66.5742C193.363 66.5742 192.076 67.8919 192.076 69.4792C192.076 71.0664 193.363 72.3542 194.949 72.3542Z" fill="url(#paint44_linear_104_88)"/>
<path d="M221.551 118.474C223.137 118.474 224.424 117.186 224.424 115.599C224.424 114.012 223.137 112.724 221.551 112.724C219.965 112.724 218.678 114.012 218.678 115.599C218.678 117.186 219.965 118.474 221.551 118.474Z" fill="url(#paint45_linear_104_88)"/>
<path d="M194.949 103.62C196.834 103.62 198.33 102.092 198.33 100.236C198.33 98.3489 196.834 96.8216 194.949 96.8216C193.093 96.8216 191.567 98.3489 191.567 100.236C191.567 102.092 193.093 103.62 194.949 103.62Z" fill="url(#paint46_linear_104_88)"/>
<path d="M64.1197 115.599C64.1197 114.371 63.1322 113.383 61.9053 113.383C60.6784 113.383 59.6909 114.371 59.6909 115.599C59.6909 116.827 60.6784 117.815 61.9053 117.815C63.1322 117.815 64.1197 116.827 64.1197 115.599Z" fill="url(#paint47_linear_104_88)"/>
<path d="M143.509 100.236C143.509 99.2474 142.731 98.4388 141.743 98.4388C140.756 98.4388 139.948 99.2474 139.948 100.236C139.948 101.194 140.756 102.003 141.743 102.003C142.731 102.003 143.509 101.194 143.509 100.236Z" fill="url(#paint48_linear_104_88)"/>
<path d="M168.346 117.516C169.393 117.516 170.261 116.647 170.261 115.599C170.261 114.551 169.393 113.682 168.346 113.682C167.298 113.682 166.431 114.551 166.431 115.599C166.431 116.647 167.298 117.516 168.346 117.516Z" fill="url(#paint49_linear_104_88)"/>
<path d="M221.551 143.9C220.205 143.9 219.097 144.978 219.097 146.355C219.097 147.703 220.205 148.811 221.551 148.811C222.928 148.811 224.035 147.703 224.035 146.355C224.035 144.978 222.928 143.9 221.551 143.9Z" fill="url(#paint50_linear_104_88)"/>
<path d="M115.111 143.51C113.555 143.51 112.268 144.768 112.268 146.355C112.268 147.913 113.555 149.201 115.111 149.201C116.697 149.201 117.953 147.913 117.953 146.355C117.953 144.768 116.697 143.51 115.111 143.51Z" fill="url(#paint51_linear_104_88)"/>
<path d="M138.781 161.719C138.781 163.366 140.097 164.684 141.743 164.684C143.359 164.684 144.676 163.366 144.676 161.719C144.676 160.102 143.359 158.784 141.743 158.784C140.097 158.784 138.781 160.102 138.781 161.719Z" fill="url(#paint52_linear_104_88)"/>
<path d="M168.346 209.635C169.333 209.635 170.141 208.827 170.141 207.839C170.141 206.88 169.333 206.072 168.346 206.072C167.358 206.072 166.551 206.88 166.551 207.839C166.551 208.827 167.358 209.635 168.346 209.635Z" fill="url(#paint53_linear_104_88)"/>
<path d="M141.743 190.139C140.456 190.139 139.409 191.187 139.409 192.475C139.409 193.763 140.456 194.811 141.743 194.811C143.03 194.811 144.047 193.763 144.047 192.475C144.047 191.187 143.03 190.139 141.743 190.139Z" fill="url(#paint54_linear_104_88)"/>
<path d="M168.346 148.841C169.723 148.841 170.83 147.733 170.83 146.355C170.83 144.978 169.723 143.87 168.346 143.87C166.969 143.87 165.862 144.978 165.862 146.355C165.862 147.733 166.969 148.841 168.346 148.841Z" fill="url(#paint55_linear_104_88)"/>
<path d="M194.949 196.009C196.894 196.009 198.48 194.422 198.48 192.475C198.48 190.529 196.894 188.941 194.949 188.941C193.003 188.941 191.417 190.529 191.417 192.475C191.417 194.422 193.003 196.009 194.949 196.009Z" fill="url(#paint56_linear_104_88)"/>
<path d="M221.551 209.845C222.658 209.845 223.556 208.947 223.556 207.839C223.556 206.76 222.658 205.862 221.551 205.862C220.474 205.862 219.576 206.76 219.576 207.839C219.576 208.947 220.474 209.845 221.551 209.845Z" fill="url(#paint57_linear_104_88)"/>
<path d="M194.948 165.223C196.894 165.223 198.45 163.665 198.45 161.719C198.45 159.802 196.894 158.245 194.948 158.245C193.033 158.245 191.477 159.802 191.477 161.719C191.477 163.665 193.033 165.223 194.948 165.223Z" fill="url(#paint58_linear_104_88)"/>
</g>
<g style="mix-blend-mode:multiply" opacity="0.2">
<path d="M65.0772 -41.5977V-9.04427L32.759 9.61328L0.410927 -9.04427V-41.5977H0.141602V-8.89454L32.6693 9.91276L32.759 9.9427L65.3166 -8.86459L65.3764 -8.89454V-41.5977H65.0772Z" fill="url(#paint59_linear_104_88)"/>
<path d="M130.043 -41.5977V-9.04427L97.7247 9.61328L65.3766 -9.04427V-41.5977H65.0774V-8.89454L97.635 9.91276L97.7247 9.9427L130.252 -8.86459L130.342 -8.89454V-41.5977H130.043Z" fill="url(#paint60_linear_104_88)"/>
<path d="M195.008 -41.5977V-9.04427L162.66 9.61328L130.342 -9.04427V-41.5977H130.043V-8.89454L162.601 9.91276L162.66 9.9427L195.218 -8.86459L195.278 -8.89454V-41.5977H195.008Z" fill="url(#paint61_linear_104_88)"/>
<path d="M195.278 -9.04427V-41.5977H195.009V-8.89454L227.566 9.91276L227.626 9.9427L248.184 -1.91667V-2.2461L227.626 9.61328L195.278 -9.04427Z" fill="url(#paint62_linear_104_88)"/>
<path fill-rule="evenodd" clip-rule="evenodd" d="M130.193 66.2448L130.133 66.2148L97.5752 47.4075V9.70312L97.6351 9.67317L130.193 -9.13412L130.252 -9.10418L162.81 9.70312V47.4075L162.75 47.4375L130.193 66.2448ZM97.8445 47.2279L130.193 65.9154L162.511 47.2279V9.8828L130.193 -8.8047L97.8445 9.8828V47.2279Z" fill="url(#paint63_linear_104_88)"/>
<path fill-rule="evenodd" clip-rule="evenodd" d="M195.158 66.2448L195.068 66.2148L162.541 47.4075V9.70312L162.601 9.67317L195.158 -9.13412L195.218 -9.10418L227.776 9.70312V47.4075L227.686 47.4375L195.158 66.2448ZM162.84 47.2279L195.158 65.9154L227.506 47.2279V9.8828L195.158 -8.8047L162.84 9.8828V47.2279Z" fill="url(#paint64_linear_104_88)"/>
<path d="M248.184 59.0273L227.776 47.2279V9.88281L248.184 -1.91667V-2.24609L227.566 9.67318L227.476 9.70312V47.4076L248.184 59.3568V59.0273Z" fill="url(#paint65_linear_104_88)"/>
<path fill-rule="evenodd" clip-rule="evenodd" d="M162.66 122.547L162.601 122.517L130.043 103.71V66.0052L130.133 65.9753L162.66 47.168L162.75 47.1979L195.278 66.0052V103.71L195.218 103.74L162.66 122.547ZM130.312 103.53L162.66 122.217L195.008 103.53V66.1849L162.66 47.4974L130.312 66.1849V103.53Z" fill="url(#paint66_linear_104_88)"/>
<path d="M248.184 110.358L227.626 122.217L195.278 103.53V66.1849L227.626 47.4974L248.184 59.3568V59.0273L227.686 47.1979L227.626 47.168L195.068 65.9753L195.009 66.0052V103.71L227.566 122.517L227.626 122.547L248.184 110.688V110.358Z" fill="url(#paint67_linear_104_88)"/>
<path fill-rule="evenodd" clip-rule="evenodd" d="M195.158 178.849L195.068 178.819L162.541 160.012V122.307L162.601 122.277L195.158 103.47L195.218 103.5L227.776 122.307V160.012L227.686 160.042L195.158 178.849ZM162.84 159.832L195.158 178.52L227.506 159.832V122.457L195.158 103.799L162.84 122.457V159.832Z" fill="url(#paint68_linear_104_88)"/>
<path d="M248.184 171.632L227.776 159.832V122.457L248.184 110.688V110.358L227.566 122.277L227.476 122.307V160.012L248.184 171.961V171.632Z" fill="url(#paint69_linear_104_88)"/>
<path d="M204.914 -41.5977V-3.35416L163.319 20.694L121.724 -3.35416V-41.5977H120.258V-2.48568L163.319 22.401L206.38 -2.48568V-41.5977H204.914Z" fill="url(#paint70_linear_104_88)"/>
<path d="M206.38 -3.35416V-41.5977H204.914V-2.48568L247.975 22.401L248.184 22.2513V20.5742L247.975 20.694L206.38 -3.35416Z" fill="url(#paint71_linear_104_88)"/>
<path fill-rule="evenodd" clip-rule="evenodd" d="M248.184 217.931L205.632 242.518L162.571 217.632V167.858L205.632 142.971L248.184 167.559V217.931ZM247.226 216.793V168.727L205.632 144.678L164.037 168.727V216.793L205.632 240.811L247.226 216.793Z" fill="url(#paint72_linear_104_88)"/>
<path fill-rule="evenodd" clip-rule="evenodd" d="M163.319 315.891L120.258 291.004V241.23L163.319 216.344L206.38 241.23V291.004L163.319 315.891ZM121.724 290.165L163.319 314.184L204.914 290.165V242.099L163.319 218.051L121.724 242.099V290.165Z" fill="url(#paint73_linear_104_88)"/>
<path d="M248.184 314.064L247.975 314.184L206.38 290.165V242.099L247.975 218.051L248.184 218.171V216.494L247.975 216.344L204.914 241.23V291.004L247.975 315.891L248.184 315.771V314.064Z" fill="url(#paint74_linear_104_88)"/>
<path d="M99.7297 9.79296C99.7297 8.65494 98.832 7.7565 97.7248 7.7565C96.5876 7.7565 95.6899 8.65494 95.6899 9.79296C95.6899 10.901 96.5876 11.8294 97.7248 11.8294C98.832 11.8294 99.7297 10.901 99.7297 9.79296Z" fill="url(#paint75_linear_104_88)"/>
<path d="M227.626 13.2969C229.571 13.2969 231.127 11.7396 231.127 9.79297C231.127 7.84635 229.571 6.28906 227.626 6.28906C225.681 6.28906 224.125 7.84635 224.125 9.79297C224.125 11.7396 225.681 13.2969 227.626 13.2969Z" fill="url(#paint76_linear_104_88)"/>
<path d="M35.4525 9.79297C35.4525 8.29557 34.2556 7.09766 32.7593 7.09766C31.2631 7.09766 30.0662 8.29557 30.0662 9.79297C30.0662 11.2904 31.2631 12.4883 32.7593 12.4883C34.2556 12.4883 35.4525 11.2904 35.4525 9.79297Z" fill="url(#paint77_linear_104_88)"/>
<path d="M162.66 12.1289C163.947 12.1289 164.995 11.0807 164.995 9.79297C164.995 8.50521 163.947 7.45703 162.66 7.45703C161.374 7.45703 160.326 8.50521 160.326 9.79297C160.326 11.0807 161.374 12.1289 162.66 12.1289Z" fill="url(#paint78_linear_104_88)"/>
<path d="M227.626 44.3229C225.98 44.3229 224.634 45.6706 224.634 47.3177C224.634 48.9948 225.98 50.3425 227.626 50.3425C229.302 50.3425 230.648 48.9948 230.648 47.3177C230.648 45.6706 229.302 44.3229 227.626 44.3229Z" fill="url(#paint79_linear_104_88)"/>
<path d="M97.7249 43.8438C95.8097 43.8438 94.2537 45.401 94.2537 47.3177C94.2537 49.2344 95.8097 50.7917 97.7249 50.7917C99.64 50.7917 101.196 49.2344 101.196 47.3177C101.196 45.401 99.64 43.8438 97.7249 43.8438Z" fill="url(#paint80_linear_104_88)"/>
<path d="M126.572 66.095C126.572 68.0716 128.188 69.6888 130.193 69.6888C132.168 69.6888 133.784 68.0716 133.784 66.095C133.784 64.0885 132.168 62.4713 130.193 62.4713C128.188 62.4713 126.572 64.0885 126.572 66.095Z" fill="url(#paint81_linear_104_88)"/>
<path d="M162.66 124.583C163.887 124.583 164.845 123.595 164.845 122.397C164.845 121.199 163.887 120.211 162.66 120.211C161.463 120.211 160.506 121.199 160.506 122.397C160.506 123.595 161.463 124.583 162.66 124.583Z" fill="url(#paint82_linear_104_88)"/>
<path d="M130.193 100.775C128.637 100.775 127.35 102.063 127.35 103.62C127.35 105.177 128.637 106.465 130.193 106.465C131.749 106.465 133.035 105.177 133.035 103.62C133.035 102.063 131.749 100.775 130.193 100.775Z" fill="url(#paint83_linear_104_88)"/>
<path d="M162.66 50.3425C164.336 50.3425 165.683 48.9948 165.683 47.3177C165.683 45.6406 164.336 44.293 162.66 44.293C160.985 44.293 159.638 45.6406 159.638 47.3177C159.638 48.9948 160.985 50.3425 162.66 50.3425Z" fill="url(#paint84_linear_104_88)"/>
<path d="M195.158 107.932C197.522 107.932 199.437 105.986 199.437 103.62C199.437 101.254 197.522 99.3073 195.158 99.3073C192.764 99.3073 190.849 101.254 190.849 103.62C190.849 105.986 192.764 107.932 195.158 107.932Z" fill="url(#paint85_linear_104_88)"/>
<path d="M227.626 124.823C228.973 124.823 230.05 123.745 230.05 122.397C230.05 121.049 228.973 119.971 227.626 119.971C226.279 119.971 225.202 121.049 225.202 122.397C225.202 123.745 226.279 124.823 227.626 124.823Z" fill="url(#paint86_linear_104_88)"/>
<path d="M195.158 70.3476C197.492 70.3476 199.407 68.431 199.407 66.095C199.407 63.7292 197.492 61.8424 195.158 61.8424C192.794 61.8424 190.909 63.7292 190.909 66.095C190.909 68.431 192.794 70.3476 195.158 70.3476Z" fill="url(#paint87_linear_104_88)"/>
<path d="M162.66 162.258C163.947 162.258 164.995 161.21 164.995 159.922C164.995 158.634 163.947 157.586 162.66 157.586C161.374 157.586 160.326 158.634 160.326 159.922C160.326 161.21 161.374 162.258 162.66 162.258Z" fill="url(#paint88_linear_104_88)"/>
<path d="M195.158 174.117C192.615 174.117 190.58 176.154 190.58 178.699C190.58 181.215 192.615 183.251 195.158 183.251C197.672 183.251 199.707 181.215 199.707 178.699C199.707 176.154 197.672 174.117 195.158 174.117Z" fill="url(#paint89_linear_104_88)"/>
<path d="M227.626 162.408C229.002 162.408 230.11 161.299 230.11 159.922C230.11 158.544 229.002 157.436 227.626 157.436C226.249 157.436 225.142 158.544 225.142 159.922C225.142 161.299 226.249 162.408 227.626 162.408Z" fill="url(#paint90_linear_104_88)"/>
</g>
</g>
<defs>
<linearGradient id="paint0_linear_104_88" x1="364.273" y1="633.016" x2="-36.021" y2="15.4527" gradientUnits="userSpaceOnUse">
<stop stop-color="#52BBE8"/>
<stop offset="1" stop-color="#E1EFF8"/>
</linearGradient>
<linearGradient id="paint1_linear_104_88" x1="394.354" y1="597.261" x2="-5.93958" y2="-20.303" gradientUnits="userSpaceOnUse">
<stop stop-color="#52BBE8"/>
<stop offset="1" stop-color="#E1EFF8"/>
</linearGradient>
<linearGradient id="paint2_linear_104_88" x1="424.434" y1="561.504" x2="24.1409" y2="-56.0592" gradientUnits="userSpaceOnUse">
<stop stop-color="#52BBE8"/>
<stop offset="1" stop-color="#E1EFF8"/>
</linearGradient>
<linearGradient id="paint3_linear_104_88" x1="454.516" y1="525.75" x2="54.2214" y2="-91.8153" gradientUnits="userSpaceOnUse">
<stop stop-color="#52BBE8"/>
<stop offset="1" stop-color="#E1EFF8"/>
</linearGradient>
<linearGradient id="paint4_linear_104_88" x1="427.546" y1="450.869" x2="73.9234" y2="-94.6914" gradientUnits="userSpaceOnUse">
<stop stop-color="#52BBE8"/>
<stop offset="1" stop-color="#E1EFF8"/>
</linearGradient>
<linearGradient id="paint5_linear_104_88" x1="348.372" y1="613.454" x2="-51.9211" y2="-4.10893" gradientUnits="userSpaceOnUse">
<stop stop-color="#52BBE8"/>
<stop offset="1" stop-color="#E1EFF8"/>
</linearGradient>
<linearGradient id="paint6_linear_104_88" x1="378.453" y1="577.697" x2="-21.8404" y2="-39.8655" gradientUnits="userSpaceOnUse">
<stop stop-color="#52BBE8"/>
<stop offset="1" stop-color="#E1EFF8"/>
</linearGradient>
<linearGradient id="paint7_linear_104_88" x1="408.534" y1="541.942" x2="8.24083" y2="-75.6213" gradientUnits="userSpaceOnUse">
<stop stop-color="#52BBE8"/>
<stop offset="1" stop-color="#E1EFF8"/>
</linearGradient>
<linearGradient id="paint8_linear_104_88" x1="438.615" y1="506.187" x2="38.3208" y2="-111.377" gradientUnits="userSpaceOnUse">
<stop stop-color="#52BBE8"/>
<stop offset="1" stop-color="#E1EFF8"/>
</linearGradient>
<linearGradient id="paint9_linear_104_88" x1="362.552" y1="558.136" x2="-37.7409" y2="-59.4266" gradientUnits="userSpaceOnUse">
<stop stop-color="#52BBE8"/>
<stop offset="1" stop-color="#E1EFF8"/>
</linearGradient>
<linearGradient id="paint10_linear_104_88" x1="392.633" y1="522.382" x2="-7.66098" y2="-95.1836" gradientUnits="userSpaceOnUse">
<stop stop-color="#52BBE8"/>
<stop offset="1" stop-color="#E1EFF8"/>
</linearGradient>
<linearGradient id="paint11_linear_104_88" x1="372.879" y1="458.65" x2="19.2563" y2="-86.9104" gradientUnits="userSpaceOnUse">
<stop stop-color="#52BBE8"/>
<stop offset="1" stop-color="#E1EFF8"/>
</linearGradient>
<linearGradient id="paint12_linear_104_88" x1="346.651" y1="538.574" x2="-53.6416" y2="-78.9892" gradientUnits="userSpaceOnUse">
<stop stop-color="#52BBE8"/>
<stop offset="1" stop-color="#E1EFF8"/>
</linearGradient>
<linearGradient id="paint13_linear_104_88" x1="376.732" y1="502.819" x2="-23.5616" y2="-114.745" gradientUnits="userSpaceOnUse">
<stop stop-color="#52BBE8"/>
<stop offset="1" stop-color="#E1EFF8"/>
</linearGradient>
<linearGradient id="paint14_linear_104_88" x1="330.751" y1="519.013" x2="-69.5428" y2="-98.5513" gradientUnits="userSpaceOnUse">
<stop stop-color="#52BBE8"/>
<stop offset="1" stop-color="#E1EFF8"/>
</linearGradient>
<linearGradient id="paint15_linear_104_88" x1="318.211" y1="466.43" x2="-35.4107" y2="-79.1292" gradientUnits="userSpaceOnUse">
<stop stop-color="#52BBE8"/>
<stop offset="1" stop-color="#E1EFF8"/>
</linearGradient>
<linearGradient id="paint16_linear_104_88" x1="412.79" y1="514.216" x2="64.361" y2="-23.3316" gradientUnits="userSpaceOnUse">
<stop stop-color="#52BBE8"/>
<stop offset="1" stop-color="#E1EFF8"/>
</linearGradient>
<linearGradient id="paint17_linear_104_88" x1="455.901" y1="473.654" x2="107.472" y2="-63.8937" gradientUnits="userSpaceOnUse">
<stop stop-color="#52BBE8"/>
<stop offset="1" stop-color="#E1EFF8"/>
</linearGradient>
<linearGradient id="paint18_linear_104_88" x1="453.419" y1="386.05" x2="145.026" y2="-89.7301" gradientUnits="userSpaceOnUse">
<stop stop-color="#52BBE8"/>
<stop offset="1" stop-color="#E1EFF8"/>
</linearGradient>
<linearGradient id="paint19_linear_104_88" x1="416.806" y1="575.202" x2="16.5137" y2="-42.3597" gradientUnits="userSpaceOnUse">
<stop stop-color="#52BBE8"/>
<stop offset="1" stop-color="#E1EFF8"/>
</linearGradient>
<linearGradient id="paint20_linear_104_88" x1="456.01" y1="528.605" x2="55.7171" y2="-88.9585" gradientUnits="userSpaceOnUse">
<stop stop-color="#52BBE8"/>
<stop offset="1" stop-color="#E1EFF8"/>
</linearGradient>
<linearGradient id="paint21_linear_104_88" x1="396.084" y1="549.708" x2="-4.20827" y2="-67.8535" gradientUnits="userSpaceOnUse">
<stop stop-color="#52BBE8"/>
<stop offset="1" stop-color="#E1EFF8"/>
</linearGradient>
<linearGradient id="paint22_linear_104_88" x1="393.922" y1="480.131" x2="26.3381" y2="-86.9681" gradientUnits="userSpaceOnUse">
<stop stop-color="#52BBE8"/>
<stop offset="1" stop-color="#E1EFF8"/>
</linearGradient>
<linearGradient id="paint23_linear_104_88" x1="294.712" y1="519.826" x2="-105.582" y2="-97.7369" gradientUnits="userSpaceOnUse">
<stop stop-color="#52BBE8"/>
<stop offset="1" stop-color="#E1EFF8"/>
</linearGradient>
<linearGradient id="paint24_linear_104_88" x1="371.006" y1="592.557" x2="-5.20548" y2="12.1476" gradientUnits="userSpaceOnUse">
<stop stop-color="#52BBE8"/>
<stop offset="1" stop-color="#E1EFF8"/>
</linearGradient>
<linearGradient id="paint25_linear_104_88" x1="353.208" y1="592.314" x2="-22.9994" y2="11.9102" gradientUnits="userSpaceOnUse">
<stop stop-color="#52BBE8"/>
<stop offset="1" stop-color="#E1EFF8"/>
</linearGradient>
<linearGradient id="paint26_linear_104_88" x1="359.527" y1="575.744" x2="-16.6863" y2="-4.67105" gradientUnits="userSpaceOnUse">
<stop stop-color="#52BBE8"/>
<stop offset="1" stop-color="#E1EFF8"/>
</linearGradient>
<linearGradient id="paint27_linear_104_88" x1="399.46" y1="573.401" x2="23.2462" y2="-7.01126" gradientUnits="userSpaceOnUse">
<stop stop-color="#52BBE8"/>
<stop offset="1" stop-color="#E1EFF8"/>
</linearGradient>
<linearGradient id="paint28_linear_104_88" x1="404.3" y1="557.784" x2="28.0824" y2="-22.6356" gradientUnits="userSpaceOnUse">
<stop stop-color="#52BBE8"/>
<stop offset="1" stop-color="#E1EFF8"/>
</linearGradient>
<linearGradient id="paint29_linear_104_88" x1="383.064" y1="559.771" x2="6.84969" y2="-20.6432" gradientUnits="userSpaceOnUse">
<stop stop-color="#52BBE8"/>
<stop offset="1" stop-color="#E1EFF8"/>
</linearGradient>
<linearGradient id="paint30_linear_104_88" x1="430.359" y1="540.163" x2="54.1492" y2="-40.2468" gradientUnits="userSpaceOnUse">
<stop stop-color="#52BBE8"/>
<stop offset="1" stop-color="#E1EFF8"/>
</linearGradient>
<linearGradient id="paint31_linear_104_88" x1="434.879" y1="524.748" x2="58.6688" y2="-55.6639" gradientUnits="userSpaceOnUse">
<stop stop-color="#52BBE8"/>
<stop offset="1" stop-color="#E1EFF8"/>
</linearGradient>
<linearGradient id="paint32_linear_104_88" x1="414.845" y1="525.96" x2="38.6325" y2="-54.448" gradientUnits="userSpaceOnUse">
<stop stop-color="#52BBE8"/>
<stop offset="1" stop-color="#E1EFF8"/>
</linearGradient>
<linearGradient id="paint33_linear_104_88" x1="461.566" y1="506.741" x2="85.35" y2="-73.6764" gradientUnits="userSpaceOnUse">
<stop stop-color="#52BBE8"/>
<stop offset="1" stop-color="#E1EFF8"/>
</linearGradient>
<linearGradient id="paint34_linear_104_88" x1="467.291" y1="490.528" x2="91.084" y2="-89.8773" gradientUnits="userSpaceOnUse">
<stop stop-color="#52BBE8"/>
<stop offset="1" stop-color="#E1EFF8"/>
</linearGradient>
<linearGradient id="paint35_linear_104_88" x1="448.594" y1="490.883" x2="72.3834" y2="-89.5299" gradientUnits="userSpaceOnUse">
<stop stop-color="#52BBE8"/>
<stop offset="1" stop-color="#E1EFF8"/>
</linearGradient>
<linearGradient id="paint36_linear_104_88" x1="493.5" y1="472.817" x2="117.294" y2="-107.583" gradientUnits="userSpaceOnUse">
<stop stop-color="#52BBE8"/>
<stop offset="1" stop-color="#E1EFF8"/>
</linearGradient>
<linearGradient id="paint37_linear_104_88" x1="498.629" y1="457.025" x2="122.412" y2="-123.394" gradientUnits="userSpaceOnUse">
<stop stop-color="#52BBE8"/>
<stop offset="1" stop-color="#E1EFF8"/>
</linearGradient>
<linearGradient id="paint38_linear_104_88" x1="478.898" y1="458.04" x2="102.683" y2="-122.376" gradientUnits="userSpaceOnUse">
<stop stop-color="#52BBE8"/>
<stop offset="1" stop-color="#E1EFF8"/>
</linearGradient>
<linearGradient id="paint39_linear_104_88" x1="339.314" y1="577.07" x2="-36.8976" y2="-3.34021" gradientUnits="userSpaceOnUse">
<stop stop-color="#52BBE8"/>
<stop offset="1" stop-color="#E1EFF8"/>
</linearGradient>
<linearGradient id="paint40_linear_104_88" x1="391.749" y1="541.652" x2="15.536" y2="-38.7608" gradientUnits="userSpaceOnUse">
<stop stop-color="#52BBE8"/>
<stop offset="1" stop-color="#E1EFF8"/>
</linearGradient>
<linearGradient id="paint41_linear_104_88" x1="370.952" y1="543.357" x2="-5.25957" y2="-37.0518" gradientUnits="userSpaceOnUse">
<stop stop-color="#52BBE8"/>
<stop offset="1" stop-color="#E1EFF8"/>
</linearGradient>
<linearGradient id="paint42_linear_104_88" x1="378.125" y1="526.223" x2="1.91406" y2="-54.1907" gradientUnits="userSpaceOnUse">
<stop stop-color="#52BBE8"/>
<stop offset="1" stop-color="#E1EFF8"/>
</linearGradient>
<linearGradient id="paint43_linear_104_88" x1="420.356" y1="509.907" x2="44.1416" y2="-70.5085" gradientUnits="userSpaceOnUse">
<stop stop-color="#52BBE8"/>
<stop offset="1" stop-color="#E1EFF8"/>
</linearGradient>
<linearGradient id="paint44_linear_104_88" x1="452.992" y1="475.542" x2="76.7805" y2="-104.866" gradientUnits="userSpaceOnUse">
<stop stop-color="#52BBE8"/>
<stop offset="1" stop-color="#E1EFF8"/>
</linearGradient>
<linearGradient id="paint45_linear_104_88" x1="439.661" y1="459.926" x2="63.4485" y2="-120.484" gradientUnits="userSpaceOnUse">
<stop stop-color="#52BBE8"/>
<stop offset="1" stop-color="#E1EFF8"/>
</linearGradient>
<linearGradient id="paint46_linear_104_88" x1="433.022" y1="476.717" x2="56.8116" y2="-103.694" gradientUnits="userSpaceOnUse">
<stop stop-color="#52BBE8"/>
<stop offset="1" stop-color="#E1EFF8"/>
</linearGradient>
<linearGradient id="paint47_linear_104_88" x1="346.012" y1="560.24" x2="-30.1984" y2="-20.1696" gradientUnits="userSpaceOnUse">
<stop stop-color="#52BBE8"/>
<stop offset="1" stop-color="#E1EFF8"/>
</linearGradient>
<linearGradient id="paint48_linear_104_88" x1="403.411" y1="509.11" x2="27.2031" y2="-71.297" gradientUnits="userSpaceOnUse">
<stop stop-color="#52BBE8"/>
<stop offset="1" stop-color="#E1EFF8"/>
</linearGradient>
<linearGradient id="paint49_linear_104_88" x1="409.308" y1="492.802" x2="33.0991" y2="-87.6076" gradientUnits="userSpaceOnUse">
<stop stop-color="#52BBE8"/>
<stop offset="1" stop-color="#E1EFF8"/>
</linearGradient>
<linearGradient id="paint50_linear_104_88" x1="420.752" y1="460.408" x2="44.5427" y2="-119.998" gradientUnits="userSpaceOnUse">
<stop stop-color="#52BBE8"/>
<stop offset="1" stop-color="#E1EFF8"/>
</linearGradient>
<linearGradient id="paint51_linear_104_88" x1="357.365" y1="527.91" x2="-18.849" y2="-52.5052" gradientUnits="userSpaceOnUse">
<stop stop-color="#52BBE8"/>
<stop offset="1" stop-color="#E1EFF8"/>
</linearGradient>
<linearGradient id="paint52_linear_104_88" x1="363.279" y1="511.584" x2="-12.933" y2="-68.8258" gradientUnits="userSpaceOnUse">
<stop stop-color="#52BBE8"/>
<stop offset="1" stop-color="#E1EFF8"/>
</linearGradient>
<linearGradient id="paint53_linear_104_88" x1="351.293" y1="495.095" x2="-24.9186" y2="-85.3151" gradientUnits="userSpaceOnUse">
<stop stop-color="#52BBE8"/>
<stop offset="1" stop-color="#E1EFF8"/>
</linearGradient>
<linearGradient id="paint54_linear_104_88" x1="344.627" y1="511.91" x2="-31.5896" y2="-68.5085" gradientUnits="userSpaceOnUse">
<stop stop-color="#52BBE8"/>
<stop offset="1" stop-color="#E1EFF8"/>
</linearGradient>
<linearGradient id="paint55_linear_104_88" x1="389.258" y1="494.027" x2="13.0475" y2="-86.381" gradientUnits="userSpaceOnUse">
<stop stop-color="#52BBE8"/>
<stop offset="1" stop-color="#E1EFF8"/>
</linearGradient>
<linearGradient id="paint56_linear_104_88" x1="374.707" y1="479.203" x2="-1.5035" y2="-101.209" gradientUnits="userSpaceOnUse">
<stop stop-color="#52BBE8"/>
<stop offset="1" stop-color="#E1EFF8"/>
</linearGradient>
<linearGradient id="paint57_linear_104_88" x1="382.527" y1="461.644" x2="6.31571" y2="-118.765" gradientUnits="userSpaceOnUse">
<stop stop-color="#52BBE8"/>
<stop offset="1" stop-color="#E1EFF8"/>
</linearGradient>
<linearGradient id="paint58_linear_104_88" x1="394.134" y1="478.379" x2="17.9234" y2="-102.029" gradientUnits="userSpaceOnUse">
<stop stop-color="#52BBE8"/>
<stop offset="1" stop-color="#E1EFF8"/>
</linearGradient>
<linearGradient id="paint59_linear_104_88" x1="343.311" y1="521.249" x2="-72.2265" y2="-119.833" gradientUnits="userSpaceOnUse">
<stop stop-color="#52BBE8"/>
<stop offset="1" stop-color="#E1EFF8"/>
</linearGradient>
<linearGradient id="paint60_linear_104_88" x1="384.248" y1="484.131" x2="-31.2897" y2="-156.951" gradientUnits="userSpaceOnUse">
<stop stop-color="#52BBE8"/>
<stop offset="1" stop-color="#E1EFF8"/>
</linearGradient>
<linearGradient id="paint61_linear_104_88" x1="425.185" y1="447.014" x2="9.64698" y2="-194.069" gradientUnits="userSpaceOnUse">
<stop stop-color="#52BBE8"/>
<stop offset="1" stop-color="#E1EFF8"/>
</linearGradient>
<linearGradient id="paint62_linear_104_88" x1="437.807" y1="382.585" x2="52.5227" y2="-211.823" gradientUnits="userSpaceOnUse">
<stop stop-color="#52BBE8"/>
<stop offset="1" stop-color="#E1EFF8"/>
</linearGradient>
<linearGradient id="paint63_linear_104_88" x1="399.71" y1="549.925" x2="-88.8648" y2="-203.836" gradientUnits="userSpaceOnUse">
<stop stop-color="#52BBE8"/>
<stop offset="1" stop-color="#E1EFF8"/>
</linearGradient>
<linearGradient id="paint64_linear_104_88" x1="436.425" y1="506.285" x2="-52.1508" y2="-247.477" gradientUnits="userSpaceOnUse">
<stop stop-color="#52BBE8"/>
<stop offset="1" stop-color="#E1EFF8"/>
</linearGradient>
<linearGradient id="paint65_linear_104_88" x1="374.794" y1="412.477" x2="-20.2503" y2="-196.989" gradientUnits="userSpaceOnUse">
<stop stop-color="#52BBE8"/>
<stop offset="1" stop-color="#E1EFF8"/>
</linearGradient>
<linearGradient id="paint66_linear_104_88" x1="380.302" y1="526.049" x2="-108.273" y2="-227.712" gradientUnits="userSpaceOnUse">
<stop stop-color="#52BBE8"/>
<stop offset="1" stop-color="#E1EFF8"/>
</linearGradient>
<linearGradient id="paint67_linear_104_88" x1="390.927" y1="466.651" x2="-70.0884" y2="-244.594" gradientUnits="userSpaceOnUse">
<stop stop-color="#52BBE8"/>
<stop offset="1" stop-color="#E1EFF8"/>
</linearGradient>
<linearGradient id="paint68_linear_104_88" x1="360.894" y1="502.174" x2="-127.681" y2="-251.588" gradientUnits="userSpaceOnUse">
<stop stop-color="#52BBE8"/>
<stop offset="1" stop-color="#E1EFF8"/>
</linearGradient>
<linearGradient id="paint69_linear_104_88" x1="313.723" y1="430.709" x2="-81.3218" y2="-178.757" gradientUnits="userSpaceOnUse">
<stop stop-color="#52BBE8"/>
<stop offset="1" stop-color="#E1EFF8"/>
</linearGradient>
<linearGradient id="paint70_linear_104_88" x1="421.002" y1="457.242" x2="1.88836" y2="-189.357" gradientUnits="userSpaceOnUse">
<stop stop-color="#52BBE8"/>
<stop offset="1" stop-color="#E1EFF8"/>
</linearGradient>
<linearGradient id="paint71_linear_104_88" x1="383.624" y1="338.067" x2="51.0936" y2="-174.952" gradientUnits="userSpaceOnUse">
<stop stop-color="#52BBE8"/>
<stop offset="1" stop-color="#E1EFF8"/>
</linearGradient>
<linearGradient id="paint72_linear_104_88" x1="316.103" y1="502.856" x2="-171.589" y2="-249.543" gradientUnits="userSpaceOnUse">
<stop stop-color="#52BBE8"/>
<stop offset="1" stop-color="#E1EFF8"/>
</linearGradient>
<linearGradient id="paint73_linear_104_88" x1="243.765" y1="528.925" x2="-244.808" y2="-224.834" gradientUnits="userSpaceOnUse">
<stop stop-color="#52BBE8"/>
<stop offset="1" stop-color="#E1EFF8"/>
</linearGradient>
<linearGradient id="paint74_linear_104_88" x1="214.494" y1="473.813" x2="-198.54" y2="-163.407" gradientUnits="userSpaceOnUse">
<stop stop-color="#52BBE8"/>
<stop offset="1" stop-color="#E1EFF8"/>
</linearGradient>
<linearGradient id="paint75_linear_104_88" x1="418.714" y1="510.974" x2="-40.4675" y2="-197.441" gradientUnits="userSpaceOnUse">
<stop stop-color="#52BBE8"/>
<stop offset="1" stop-color="#E1EFF8"/>
</linearGradient>
<linearGradient id="paint76_linear_104_88" x1="493.827" y1="430.058" x2="34.6418" y2="-278.362" gradientUnits="userSpaceOnUse">
<stop stop-color="#52BBE8"/>
<stop offset="1" stop-color="#E1EFF8"/>
</linearGradient>
<linearGradient id="paint77_linear_104_88" x1="379.525" y1="552.497" x2="-79.6592" y2="-155.922" gradientUnits="userSpaceOnUse">
<stop stop-color="#52BBE8"/>
<stop offset="1" stop-color="#E1EFF8"/>
</linearGradient>
<linearGradient id="paint78_linear_104_88" x1="456.781" y1="470.191" x2="-2.40731" y2="-238.233" gradientUnits="userSpaceOnUse">
<stop stop-color="#52BBE8"/>
<stop offset="1" stop-color="#E1EFF8"/>
</linearGradient>
<linearGradient id="paint79_linear_104_88" x1="470.748" y1="430.648" x2="11.566" y2="-277.77" gradientUnits="userSpaceOnUse">
<stop stop-color="#52BBE8"/>
<stop offset="1" stop-color="#E1EFF8"/>
</linearGradient>
<linearGradient id="paint80_linear_104_88" x1="393.375" y1="513.027" x2="-65.8057" y2="-195.384" gradientUnits="userSpaceOnUse">
<stop stop-color="#52BBE8"/>
<stop offset="1" stop-color="#E1EFF8"/>
</linearGradient>
<linearGradient id="paint81_linear_104_88" x1="400.598" y1="493.107" x2="-58.5849" y2="-215.309" gradientUnits="userSpaceOnUse">
<stop stop-color="#52BBE8"/>
<stop offset="1" stop-color="#E1EFF8"/>
</linearGradient>
<linearGradient id="paint82_linear_104_88" x1="385.971" y1="472.986" x2="-73.2172" y2="-235.439" gradientUnits="userSpaceOnUse">
<stop stop-color="#52BBE8"/>
<stop offset="1" stop-color="#E1EFF8"/>
</linearGradient>
<linearGradient id="paint83_linear_104_88" x1="377.829" y1="493.502" x2="-81.3557" y2="-214.918" gradientUnits="userSpaceOnUse">
<stop stop-color="#52BBE8"/>
<stop offset="1" stop-color="#E1EFF8"/>
</linearGradient>
<linearGradient id="paint84_linear_104_88" x1="432.309" y1="471.684" x2="-26.8788" y2="-236.739" gradientUnits="userSpaceOnUse">
<stop stop-color="#52BBE8"/>
<stop offset="1" stop-color="#E1EFF8"/>
</linearGradient>
<linearGradient id="paint85_linear_104_88" x1="414.545" y1="453.587" x2="-44.6396" y2="-254.832" gradientUnits="userSpaceOnUse">
<stop stop-color="#52BBE8"/>
<stop offset="1" stop-color="#E1EFF8"/>
</linearGradient>
<linearGradient id="paint86_linear_104_88" x1="424.095" y1="432.156" x2="-35.0903" y2="-276.268" gradientUnits="userSpaceOnUse">
<stop stop-color="#52BBE8"/>
<stop offset="1" stop-color="#E1EFF8"/>
</linearGradient>
<linearGradient id="paint87_linear_104_88" x1="438.259" y1="452.581" x2="-20.9233" y2="-255.837" gradientUnits="userSpaceOnUse">
<stop stop-color="#52BBE8"/>
<stop offset="1" stop-color="#E1EFF8"/>
</linearGradient>
<linearGradient id="paint88_linear_104_88" x1="362.119" y1="474.07" x2="-97.0604" y2="-234.342" gradientUnits="userSpaceOnUse">
<stop stop-color="#52BBE8"/>
<stop offset="1" stop-color="#E1EFF8"/>
</linearGradient>
<linearGradient id="paint89_linear_104_88" x1="366.911" y1="455.726" x2="-92.2725" y2="-252.691" gradientUnits="userSpaceOnUse">
<stop stop-color="#52BBE8"/>
<stop offset="1" stop-color="#E1EFF8"/>
</linearGradient>
<linearGradient id="paint90_linear_104_88" x1="400.365" y1="433.163" x2="-58.8148" y2="-275.249" gradientUnits="userSpaceOnUse">
<stop stop-color="#52BBE8"/>
<stop offset="1" stop-color="#E1EFF8"/>
</linearGradient>
<clipPath id="clip0_104_88">
<rect width="234" height="225" fill="white"/>
</clipPath>
</defs>
</svg>
