<svg width="0" height="0" class="hidden">
  <symbol id="eye" fill="none" xmlns="http://www.w3.org/2000/svg" viewBox="0 0 20 20">
    <path fill-rule="evenodd" clip-rule="evenodd" d="M5.61359 6.42412C4.30606 7.52165 3.27624 8.83007 2.69645 9.64489C2.60201 9.77761 2.55769 9.84094 2.528 9.89127C2.50946 9.92271 2.50594 9.93377 2.50399 9.94131C2.50376 9.94263 2.50305 9.94681 2.50227 9.954C2.50094 9.96632 2.5 9.98222 2.5 10C2.5 10.0178 2.50094 10.0337 2.50227 10.046C2.50305 10.0532 2.50376 10.0574 2.50399 10.0587C2.50594 10.0662 2.50946 10.0773 2.528 10.1087C2.55769 10.1591 2.60201 10.2224 2.69645 10.3551C3.27624 11.1699 4.30606 12.4784 5.61359 13.5759C6.93271 14.6831 8.44391 15.5 10 15.5C11.5561 15.5 13.0673 14.6831 14.3864 13.5759C15.6939 12.4784 16.7238 11.1699 17.3036 10.3551C17.398 10.2224 17.4423 10.1591 17.472 10.1087C17.4905 10.0773 17.4941 10.0662 17.496 10.0587C17.4962 10.0574 17.497 10.0532 17.4977 10.046C17.4991 10.0337 17.5 10.0178 17.5 10C17.5 9.98222 17.4991 9.96632 17.4977 9.954C17.497 9.94682 17.4962 9.94264 17.496 9.94131C17.4941 9.93377 17.4905 9.92272 17.472 9.89127C17.4423 9.84094 17.398 9.77761 17.3036 9.64489C16.7238 8.83007 15.6939 7.52165 14.3864 6.42412C13.0673 5.31686 11.5561 4.5 10 4.5C8.44391 4.5 6.93271 5.31686 5.61359 6.42412ZM4.64921 5.27522C6.08184 4.07268 7.92989 3 10 3C12.0701 3 13.9182 4.07268 15.3508 5.27522C16.795 6.48747 17.9094 7.90908 18.5257 8.77524C18.5358 8.78946 18.5461 8.80377 18.5564 8.8182C18.7045 9.02535 18.8698 9.25645 18.9506 9.57492C19.0165 9.83465 19.0165 10.1653 18.9506 10.4251C18.8698 10.7436 18.7045 10.9747 18.5564 11.1818C18.5461 11.1962 18.5358 11.2105 18.5257 11.2248C17.9094 12.0909 16.795 13.5125 15.3508 14.7248C13.9182 15.9273 12.0701 17 10 17C7.92989 17 6.08184 15.9273 4.64921 14.7248C3.20501 13.5125 2.0906 12.0909 1.47428 11.2248C1.46416 11.2105 1.45393 11.1962 1.44361 11.1818C1.29548 10.9747 1.13023 10.7436 1.04943 10.4251C0.983524 10.1653 0.983524 9.83465 1.04943 9.57492C1.13023 9.25644 1.29548 9.02535 1.44361 8.81819C1.45393 8.80377 1.46416 8.78945 1.47428 8.77524C2.0906 7.90908 3.20501 6.48747 4.64921 5.27522ZM10 8.5C9.17157 8.5 8.5 9.17157 8.5 10C8.5 10.8284 9.17157 11.5 10 11.5C10.8284 11.5 11.5 10.8284 11.5 10C11.5 9.17157 10.8284 8.5 10 8.5ZM7 10C7 8.34315 8.34315 7 10 7C11.6569 7 13 8.34315 13 10C13 11.6569 11.6569 13 10 13C8.34315 13 7 11.6569 7 10Z" fill="currentColor"></path>
  </symbol>
  <symbol id="burger" fill="none" xmlns="http://www.w3.org/2000/svg" viewBox="0 0 26 26">
    <path d="M24.4201 6.15732H1.58106C1.26031 6.15732 1 5.89808 1 5.57866C1 5.25924 1.26031 5 1.58106 5H24.4189C24.7397 5 25 5.25924 25 5.57866C25.0012 5.89808 24.7408 6.15732 24.4201 6.15732Z" fill="currentColor"></path>
    <path d="M24.4201 13.5781H1.58106C1.26031 13.5781 1 13.3188 1 12.9994C1 12.68 1.26031 12.4208 1.58106 12.4208H24.4189C24.7397 12.4208 25 12.68 25 12.9994C25.0012 13.32 24.7408 13.5781 24.4201 13.5781Z" fill="currentColor"></path>
    <path d="M24.4201 21H1.58106C1.26031 21 1 20.7408 1 20.4213C1 20.1019 1.26031 19.8427 1.58106 19.8427H24.4189C24.7397 19.8427 25 20.1019 25 20.4213C25.0012 20.7419 24.7408 21 24.4201 21Z" fill="currentColor"></path>
  </symbol>
  <symbol id="arrow" xmlns="http://www.w3.org/2000/svg" viewBox="0 0 40 40" fill="none">
    <path d="M19.9857 7.63624C27.0336 7.63624 32.851 13.4536 32.851 20.4891C32.851 27.5246 27.0212 33.342 19.9733 33.342C12.9377 33.342 7.13281 27.5246 7.13281 20.4891C7.13281 13.4536 12.9502 7.63624 19.9857 7.63624ZM19.9857 10.1969C14.2802 10.1969 9.7183 14.7836 9.7183 20.4891C9.7183 26.1946 14.2802 30.7689 19.9733 30.7689C25.6787 30.7689 30.2655 26.1946 30.2779 20.4891C30.2904 14.7836 25.6912 10.1969 19.9857 10.1969ZM13.5717 20.4891C13.5717 20.1411 13.7084 19.8676 13.9819 19.5941L18.1957 15.4424C18.407 15.2436 18.6556 15.1317 18.954 15.1317C19.5382 15.1317 19.9608 15.5792 19.9608 16.1634C19.9608 16.4741 19.8365 16.7352 19.6376 16.9216L18.1211 18.3635L16.729 19.4823L19.2772 19.3704L25.3431 19.3704C25.9771 19.3704 26.4245 19.8552 26.4245 20.4891C26.4245 21.1355 25.9771 21.6078 25.3431 21.6078L19.2772 21.6078L16.7414 21.4835L18.1336 22.6147L19.6376 24.0566C19.8241 24.243 19.9608 24.5041 19.9608 24.8148C19.9608 25.3991 19.5382 25.8341 18.954 25.8341C18.6556 25.8341 18.407 25.7347 18.1957 25.5358L13.9819 21.3717C13.696 21.0982 13.5717 20.8247 13.5717 20.4891Z" fill="currentColor"/>
  </symbol>
  <symbol id="search" xmlns="http://www.w3.org/2000/svg" viewBox="0 0 24 24" fill="none">
    <path d="M21.5306 20.4693L16.8365 15.7762C18.1971 14.1428 18.8755 12.0478 18.7307 9.92691C18.5859 7.80604 17.629 5.82265 16.0591 4.38932C14.4892 2.95599 12.4271 2.18308 10.3019 2.23138C8.17663 2.27968 6.15181 3.14547 4.64864 4.64864C3.14547 6.15181 2.27968 8.17663 2.23138 10.3019C2.18308 12.4271 2.95599 14.4892 4.38932 16.0591C5.82265 17.629 7.80604 18.5859 9.92691 18.7307C12.0478 18.8755 14.1428 18.1971 15.7762 16.8365L20.4693 21.5306C20.539 21.6003 20.6218 21.6556 20.7128 21.6933C20.8038 21.731 20.9014 21.7504 21 21.7504C21.0985 21.7504 21.1961 21.731 21.2871 21.6933C21.3782 21.6556 21.4609 21.6003 21.5306 21.5306C21.6003 21.4609 21.6556 21.3782 21.6933 21.2871C21.731 21.1961 21.7504 21.0985 21.7504 21C21.7504 20.9014 21.731 20.8038 21.6933 20.7128C21.6556 20.6218 21.6003 20.539 21.5306 20.4693ZM3.74997 10.5C3.74997 9.16495 4.14585 7.8599 4.88755 6.74987C5.62925 5.63984 6.68346 4.77467 7.91686 4.26378C9.15026 3.75289 10.5075 3.61922 11.8168 3.87967C13.1262 4.14012 14.3289 4.78299 15.2729 5.727C16.2169 6.671 16.8598 7.87374 17.1203 9.18311C17.3807 10.4925 17.2471 11.8497 16.7362 13.0831C16.2253 14.3165 15.3601 15.3707 14.2501 16.1124C13.14 16.8541 11.835 17.25 10.5 17.25C8.71037 17.248 6.99463 16.5362 5.72919 15.2708C4.46375 14.0053 3.75196 12.2896 3.74997 10.5Z" fill="currentColor"/>
  </symbol>
  <symbol id="mark" xmlns="http://www.w3.org/2000/svg" viewBox="0 0 18 18" fill="none">
    <path d="M9 1.125C7.35954 1.12686 5.78681 1.77935 4.62683 2.93933C3.46685 4.09931 2.81436 5.67204 2.8125 7.3125C2.8125 12.607 8.4375 16.6057 8.67727 16.773C8.77184 16.8393 8.88452 16.8748 9 16.8748C9.11548 16.8748 9.22816 16.8393 9.32273 16.773C9.5625 16.6057 15.1875 12.607 15.1875 7.3125C15.1856 5.67204 14.5331 4.09931 13.3732 2.93933C12.2132 1.77935 10.6405 1.12686 9 1.125ZM9 5.0625C9.44501 5.0625 9.88002 5.19446 10.25 5.44169C10.62 5.68893 10.9084 6.04033 11.0787 6.45146C11.249 6.8626 11.2936 7.315 11.2068 7.75145C11.12 8.18791 10.9057 8.58882 10.591 8.90349C10.2763 9.21816 9.87541 9.43245 9.43895 9.51927C9.0025 9.60608 8.5501 9.56153 8.13896 9.39123C7.72783 9.22093 7.37643 8.93254 7.12919 8.56253C6.88196 8.19252 6.75 7.75751 6.75 7.3125C6.75 6.71576 6.98705 6.14347 7.40901 5.72151C7.83097 5.29955 8.40326 5.0625 9 5.0625Z" fill="currentColor"/>
  </symbol>
  <symbol id="notebook" xmlns="http://www.w3.org/2000/svg" viewBox="0 0 15 15" fill="none">
    <path d="M9.5625 6.1875C9.5625 6.52126 9.46353 6.84752 9.27811 7.12502C9.09268 7.40253 8.82913 7.61882 8.52078 7.74655C8.21243 7.87427 7.87313 7.90769 7.54578 7.84258C7.21844 7.77746 6.91776 7.61674 6.68176 7.38074C6.44576 7.14474 6.28504 6.84406 6.21992 6.51672C6.15481 6.18937 6.18823 5.85007 6.31595 5.54172C6.44368 5.23337 6.65997 4.96982 6.93748 4.7844C7.21498 4.59897 7.54124 4.5 7.875 4.5C8.32255 4.5 8.75178 4.67779 9.06824 4.99426C9.38471 5.31072 9.5625 5.73995 9.5625 6.1875ZM14.0625 1.125V13.5C14.0625 13.7984 13.944 14.0845 13.733 14.2955C13.522 14.5065 13.2359 14.625 12.9375 14.625H2.8125C2.51413 14.625 2.22798 14.5065 2.017 14.2955C1.80603 14.0845 1.6875 13.7984 1.6875 13.5V11.8125H0.5625C0.413316 11.8125 0.270242 11.7532 0.164752 11.6477C0.0592632 11.5423 0 11.3992 0 11.25C0 11.1008 0.0592632 10.9577 0.164752 10.8523C0.270242 10.7468 0.413316 10.6875 0.5625 10.6875H1.6875V7.875H0.5625C0.413316 7.875 0.270242 7.81574 0.164752 7.71025C0.0592632 7.60476 0 7.46168 0 7.3125C0 7.16332 0.0592632 7.02024 0.164752 6.91475C0.270242 6.80926 0.413316 6.75 0.5625 6.75H1.6875V3.9375H0.5625C0.413316 3.9375 0.270242 3.87824 0.164752 3.77275C0.0592632 3.66726 0 3.52418 0 3.375C0 3.22582 0.0592632 3.08274 0.164752 2.97725C0.270242 2.87176 0.413316 2.8125 0.5625 2.8125H1.6875V1.125C1.6875 0.826631 1.80603 0.540483 2.017 0.329505C2.22798 0.118526 2.51413 0 2.8125 0H12.9375C13.2359 0 13.522 0.118526 13.733 0.329505C13.944 0.540483 14.0625 0.826631 14.0625 1.125ZM11.7 9.7875C11.2019 9.11971 10.5377 8.59393 9.77344 8.26242C10.1923 7.88002 10.4857 7.37992 10.6153 6.82776C10.7448 6.2756 10.7044 5.69718 10.4993 5.16841C10.2942 4.63963 9.93408 4.18521 9.46612 3.86478C8.99816 3.54435 8.44426 3.37288 7.87711 3.37288C7.30996 3.37288 6.75606 3.54435 6.2881 3.86478C5.82014 4.18521 5.45999 4.63963 5.25491 5.16841C5.04984 5.69718 5.00941 6.2756 5.13895 6.82776C5.26849 7.37992 5.56194 7.88002 5.98078 8.26242C5.21496 8.5933 4.54925 9.11914 4.05 9.7875C4.00568 9.84659 3.97343 9.91384 3.9551 9.9854C3.93677 10.057 3.93271 10.1314 3.94315 10.2045C3.9536 10.2777 3.97835 10.348 4.01598 10.4116C4.05362 10.4752 4.1034 10.5307 4.1625 10.575C4.22159 10.6193 4.28884 10.6516 4.3604 10.6699C4.43196 10.6882 4.50642 10.6923 4.57955 10.6818C4.65268 10.6714 4.72303 10.6467 4.78659 10.609C4.85015 10.5714 4.90568 10.5216 4.95 10.4625C5.29057 10.0084 5.73219 9.63985 6.23988 9.386C6.74757 9.13216 7.30738 9 7.875 9C8.44261 9 9.00243 9.13216 9.51013 9.386C10.0178 9.63985 10.4594 10.0084 10.8 10.4625C10.8895 10.5818 11.0228 10.6607 11.1705 10.6818C11.3181 10.7029 11.4682 10.6645 11.5875 10.575C11.7068 10.4855 11.7857 10.3522 11.8068 10.2045C11.8279 10.0569 11.7895 9.90685 11.7 9.7875Z" fill="currentColor"/>
  </symbol>
  <symbol id="instagram" xmlns="http://www.w3.org/2000/svg" viewBox="0 0 17 17" fill="none">
    <path d="M11.2987 1.54077H5.13564C4.18247 1.54179 3.26863 1.92089 2.59464 2.59488C1.92064 3.26887 1.54155 4.18271 1.54053 5.13588V11.2989C1.54155 12.2521 1.92064 13.1659 2.59464 13.8399C3.26863 14.5139 4.18247 14.893 5.13564 14.894H11.2987C12.2518 14.893 13.1657 14.5139 13.8397 13.8399C14.5137 13.1659 14.8928 12.2521 14.8938 11.2989V5.13588C14.8928 4.18271 14.5137 3.26887 13.8397 2.59488C13.1657 1.92089 12.2518 1.54179 11.2987 1.54077ZM8.21716 11.2989C7.60769 11.2989 7.01191 11.1182 6.50516 10.7796C5.9984 10.441 5.60344 9.95972 5.3702 9.39665C5.13697 8.83357 5.07595 8.21398 5.19485 7.61623C5.31375 7.01847 5.60723 6.4694 6.03819 6.03844C6.46915 5.60748 7.01823 5.31399 7.61598 5.19509C8.21374 5.07619 8.83333 5.13721 9.3964 5.37045C9.95948 5.60368 10.4407 5.99865 10.7793 6.5054C11.118 7.01215 11.2987 7.60793 11.2987 8.2174C11.2978 9.03441 10.9729 9.81771 10.3952 10.3954C9.81747 10.9731 9.03417 11.2981 8.21716 11.2989ZM12.0691 5.13588C11.9167 5.13588 11.7677 5.0907 11.6411 5.00605C11.5144 4.9214 11.4156 4.80108 11.3573 4.66031C11.299 4.51954 11.2838 4.36464 11.3135 4.21521C11.3432 4.06577 11.4166 3.9285 11.5243 3.82076C11.6321 3.71302 11.7693 3.63965 11.9188 3.60992C12.0682 3.5802 12.2231 3.59545 12.3639 3.65376C12.5046 3.71207 12.625 3.81081 12.7096 3.9375C12.7943 4.06419 12.8394 4.21313 12.8394 4.3655C12.8394 4.56982 12.7583 4.76577 12.6138 4.91024C12.4693 5.05472 12.2734 5.13588 12.0691 5.13588ZM10.2715 8.2174C10.2715 8.62371 10.151 9.0209 9.92529 9.35874C9.69955 9.69657 9.37871 9.95988 9.00332 10.1154C8.62794 10.2709 8.21488 10.3115 7.81637 10.2323C7.41787 10.153 7.05182 9.95735 6.76451 9.67004C6.47721 9.38274 6.28155 9.01669 6.20228 8.61819C6.12302 8.21968 6.1637 7.80662 6.31919 7.43124C6.47468 7.05585 6.73799 6.73501 7.07582 6.50927C7.41366 6.28354 7.81085 6.16305 8.21716 6.16305C8.762 6.16305 9.28454 6.37949 9.6698 6.76476C10.0551 7.15002 10.2715 7.67255 10.2715 8.2174Z" fill="currentColor"/>
  </symbol>
  <symbol id="youtube" xmlns="http://www.w3.org/2000/svg" viewBox="0 0 17 17" fill="none">
    <path d="M15.326 4.46301C15.2655 4.22634 15.1496 4.00745 14.9879 3.82438C14.8261 3.64132 14.6232 3.49934 14.3958 3.41016C12.195 2.56017 8.69238 2.56787 8.49979 2.56787C8.30719 2.56787 4.80453 2.56017 2.60381 3.41016C2.3764 3.49934 2.17345 3.64132 2.0117 3.82438C1.84996 4.00745 1.73407 4.22634 1.67358 4.46301C1.5073 5.10371 1.30957 6.27469 1.30957 8.21733C1.30957 10.16 1.5073 11.331 1.67358 11.9717C1.73398 12.2084 1.84983 12.4275 2.01158 12.6106C2.17332 12.7938 2.37632 12.9359 2.60381 13.0251C4.71208 13.8385 8.01188 13.8668 8.45742 13.8668H8.54216C8.9877 13.8668 12.2894 13.8385 14.3958 13.0251C14.6233 12.9359 14.8263 12.7938 14.988 12.6106C15.1497 12.4275 15.2656 12.2084 15.326 11.9717C15.4923 11.3297 15.69 10.16 15.69 8.21733C15.69 6.27469 15.4923 5.10371 15.326 4.46301ZM10.6967 8.43111L7.61513 10.4855C7.57645 10.5113 7.53149 10.5261 7.48504 10.5283C7.43859 10.5306 7.39241 10.5202 7.35141 10.4982C7.31041 10.4763 7.27615 10.4436 7.25227 10.4037C7.22839 10.3638 7.21579 10.3182 7.21582 10.2717V6.16298C7.21579 6.11648 7.22839 6.07084 7.25227 6.03094C7.27615 5.99104 7.31041 5.95837 7.35141 5.93642C7.39241 5.91448 7.43859 5.90407 7.48504 5.90632C7.53149 5.90857 7.57645 5.92339 7.61513 5.9492L10.6967 8.00355C10.7319 8.02699 10.7608 8.05877 10.7807 8.09607C10.8007 8.13336 10.8112 8.17502 10.8112 8.21733C10.8112 8.25964 10.8007 8.3013 10.7807 8.33859C10.7608 8.37589 10.7319 8.40767 10.6967 8.43111Z" fill="currentColor"/>
  </symbol>
  <symbol id="facebook" xmlns="http://www.w3.org/2000/svg" viewBox="0 0 17 17" fill="none">
    <path d="M15.4592 8.21737C15.4571 9.84917 14.8584 11.4239 13.7758 12.6449C12.6933 13.8659 11.2016 14.6489 9.58183 14.8465C9.54576 14.8506 9.50924 14.847 9.47467 14.8359C9.44009 14.8248 9.40826 14.8066 9.38127 14.7823C9.35427 14.758 9.33273 14.7283 9.31806 14.6951C9.30338 14.6619 9.29592 14.626 9.29615 14.5897V9.75813H10.8369C10.9073 9.75828 10.977 9.74396 11.0416 9.71605C11.1063 9.68814 11.1645 9.64723 11.2126 9.59588C11.2608 9.54452 11.2979 9.48381 11.3216 9.41752C11.3453 9.35123 11.3552 9.28077 11.3505 9.21052C11.3391 9.07845 11.2782 8.95557 11.18 8.8666C11.0817 8.77764 10.9534 8.72917 10.8209 8.73095H9.29615V7.19019C9.29615 6.91777 9.40437 6.6565 9.597 6.46387C9.78963 6.27124 10.0509 6.16302 10.3233 6.16302H11.3505C11.4209 6.16317 11.4906 6.14885 11.5552 6.12094C11.6199 6.09303 11.6781 6.05212 11.7262 6.00077C11.7744 5.94941 11.8115 5.8887 11.8352 5.82241C11.8589 5.75612 11.8687 5.68566 11.8641 5.61541C11.8527 5.48311 11.7916 5.36005 11.6931 5.27105C11.5945 5.18205 11.4659 5.13373 11.3332 5.13584H10.3233C9.77847 5.13584 9.25594 5.35228 8.87068 5.73755C8.48541 6.12281 8.26897 6.64535 8.26897 7.19019V8.73095H6.72821C6.6578 8.7308 6.58812 8.74512 6.52348 8.77303C6.45884 8.80094 6.40063 8.84185 6.35247 8.8932C6.30431 8.94456 6.26722 9.00527 6.2435 9.07156C6.21979 9.13785 6.20996 9.20831 6.21462 9.27857C6.22598 9.41086 6.28709 9.53392 6.38563 9.62292C6.48416 9.71192 6.61278 9.76024 6.74554 9.75813H8.26897V14.591C8.26919 14.6272 8.26174 14.6631 8.24711 14.6962C8.23247 14.7294 8.21099 14.7591 8.18406 14.7833C8.15714 14.8076 8.12539 14.8259 8.0909 14.837C8.0564 14.8481 8.01995 14.8518 7.98393 14.8478C6.32078 14.6452 4.79428 13.8257 3.70657 12.5513C2.61886 11.277 2.04923 9.64067 2.11042 7.96635C2.23882 4.49964 5.04685 1.68133 8.51614 1.54651C9.41433 1.51172 10.3103 1.65844 11.1505 1.9779C11.9907 2.29736 12.7578 2.783 13.406 3.40576C14.0541 4.02852 14.5701 4.77562 14.9228 5.60236C15.2756 6.4291 15.458 7.3185 15.4592 8.21737Z" fill="currentColor"/>
  </symbol>
  <symbol id="cross" xmlns="http://www.w3.org/2000/svg" viewBox="0 0 26 26" fill="none">
    <path d="M20.8878 19.7377C20.9633 19.8132 21.0232 19.9028 21.064 20.0014C21.1049 20.1001 21.1259 20.2058 21.1259 20.3125C21.1259 20.4193 21.1049 20.525 21.064 20.6236C21.0232 20.7223 20.9633 20.8119 20.8878 20.8874C20.8123 20.9629 20.7227 21.0227 20.6241 21.0636C20.5254 21.1044 20.4197 21.1255 20.313 21.1255C20.2062 21.1255 20.1005 21.1044 20.0018 21.0636C19.9032 21.0227 19.8136 20.9629 19.7381 20.8874L13.0005 14.1487L6.2628 20.8874C6.11034 21.0398 5.90356 21.1255 5.68795 21.1255C5.47234 21.1255 5.26557 21.0398 5.11311 20.8874C4.96065 20.7349 4.875 20.5281 4.875 20.3125C4.875 20.0969 4.96065 19.8901 5.11311 19.7377L11.8518 13L5.11311 6.26237C4.96065 6.10991 4.875 5.90313 4.875 5.68752C4.875 5.47192 4.96065 5.26514 5.11311 5.11268C5.26557 4.96022 5.47234 4.87457 5.68795 4.87457C5.90356 4.87457 6.11034 4.96022 6.2628 5.11268L13.0005 11.8514L19.7381 5.11268C19.8906 4.96022 20.0973 4.87457 20.313 4.87457C20.5286 4.87457 20.7353 4.96022 20.8878 5.11268C21.0403 5.26514 21.1259 5.47192 21.1259 5.68752C21.1259 5.90313 21.0403 6.10991 20.8878 6.26237L14.1491 13L20.8878 19.7377Z" fill="#0A3161" fill-opacity="0.5"/>
  </symbol>
  <symbol id="menu-arrow" xmlns="http://www.w3.org/2000/svg" viewBox="0 0 18 18" fill="none">
    <path d="M7.14828 2.97702L12.7733 8.60202C12.8256 8.65426 12.8671 8.7163 12.8954 8.78459C12.9237 8.85287 12.9383 8.92607 12.9383 8.99999C12.9383 9.07391 12.9237 9.14711 12.8954 9.2154C12.8671 9.28368 12.8256 9.34572 12.7733 9.39796L7.14828 15.023C7.04273 15.1285 6.89958 15.1878 6.75031 15.1878C6.60105 15.1878 6.45789 15.1285 6.35234 15.023C6.2468 14.9174 6.1875 14.7743 6.1875 14.625C6.1875 14.4757 6.2468 14.3326 6.35234 14.227L11.5801 8.99999L6.35234 3.77296C6.30008 3.7207 6.25862 3.65866 6.23034 3.59037C6.20206 3.52209 6.1875 3.4489 6.1875 3.37499C6.1875 3.30108 6.20206 3.2279 6.23034 3.15961C6.25862 3.09133 6.30008 3.02928 6.35234 2.97702C6.40461 2.92476 6.46665 2.8833 6.53493 2.85502C6.60322 2.82674 6.6764 2.81218 6.75031 2.81218C6.82422 2.81218 6.89741 2.82674 6.96569 2.85502C7.03398 2.8833 7.09602 2.92476 7.14828 2.97702Z" fill="#0A3161"/>
  </symbol>
  <symbol id="phone-call" xmlns="http://www.w3.org/2000/svg" viewBox="0 0 21 20" fill="none">
    <path d="M17.6228 12.3771L13.9636 10.8089C13.7725 10.7266 13.5639 10.6935 13.3568 10.7125C13.1497 10.7316 12.9506 10.8021 12.7777 10.9178L10.8213 12.222C9.62551 11.6404 8.65772 10.6769 8.07086 9.48372L8.07101 9.48357L9.3706 7.49779C9.48373 7.32539 9.55236 7.12765 9.57036 6.92224C9.58836 6.71683 9.55517 6.51016 9.47375 6.32072L7.90408 2.65839C7.79724 2.40979 7.61274 2.20249 7.37821 2.06752C7.14368 1.93256 6.87175 1.87719 6.60312 1.90971C5.54755 2.04543 4.57748 2.5608 3.87415 3.35953C3.17082 4.15827 2.78233 5.18574 2.78125 6.25C2.78125 12.4533 7.82794 17.5 14.0312 17.5C15.0955 17.4989 16.123 17.1104 16.9217 16.4071C17.7205 15.7037 18.2358 14.7336 18.3715 13.6781C18.404 13.4094 18.3486 13.1375 18.2136 12.903C18.0786 12.6685 17.8714 12.484 17.6228 12.3771Z" fill="white"/>
    <path d="M12.5717 3.72878C13.5252 3.98517 14.3946 4.48762 15.0928 5.18581C15.791 5.88399 16.2935 6.75339 16.5498 7.7069C16.5929 7.86673 16.6976 8.00293 16.841 8.08564C16.9844 8.16834 17.1547 8.19079 17.3146 8.14805C17.4746 8.10532 17.611 8.00089 17.694 7.85768C17.777 7.71447 17.7998 7.54418 17.7574 7.38418C17.444 6.21858 16.8298 5.1558 15.9763 4.30232C15.1228 3.44884 14.06 2.83462 12.8944 2.5212C12.7344 2.4788 12.5641 2.50161 12.4209 2.58462C12.2777 2.66763 12.1733 2.80406 12.1306 2.96397C12.0878 3.12388 12.1103 3.29422 12.193 3.4376C12.2757 3.58099 12.4119 3.68571 12.5717 3.72878L12.5717 3.72878Z" fill="white"/>
    <path d="M11.9233 6.14419C12.453 6.28663 12.9359 6.56576 13.3238 6.95361C13.7116 7.34146 13.9908 7.82443 14.1332 8.35412C14.1763 8.51394 14.281 8.65015 14.4244 8.73285C14.5678 8.81556 14.7381 8.83801 14.898 8.79527C15.0579 8.75253 15.1944 8.6481 15.2774 8.5049C15.3604 8.36169 15.3832 8.1914 15.3408 8.03139C15.1413 7.2896 14.7505 6.61325 14.2073 6.0701C13.6641 5.52694 12.9878 5.13606 12.246 4.93661C12.086 4.89421 11.9157 4.91702 11.7725 5.00003C11.6293 5.08303 11.5249 5.21946 11.4821 5.37938C11.4394 5.53929 11.4618 5.70963 11.5445 5.85301C11.6272 5.99639 11.7635 6.10111 11.9233 6.14419L11.9233 6.14419Z" fill="white"/>
  </symbol>
  <symbol id="phone" xmlns="http://www.w3.org/2000/svg" viewBox="0 0 20 20" fill="none">
    <path d="M17.9907 14.0864C17.848 15.1704 17.3157 16.1654 16.493 16.8856C15.6703 17.6058 14.6136 18.002 13.5202 18C7.1681 18 2.00001 12.8319 2.00001 6.47988C1.99805 5.3865 2.39416 4.3298 3.11437 3.50713C3.83458 2.68446 4.82963 2.15208 5.91367 2.00944C6.1878 1.97597 6.4654 2.03205 6.70504 2.16931C6.94467 2.30657 7.13349 2.51765 7.2433 2.77105L8.93293 6.54308V6.55268C9.017 6.74665 9.05172 6.95841 9.03399 7.16907C9.01626 7.37972 8.94663 7.58271 8.83133 7.75989C8.81692 7.78149 8.80172 7.80149 8.78572 7.82149L7.1201 9.79591C7.71931 11.0135 8.99293 12.2759 10.2265 12.8767L12.1738 11.2199C12.1929 11.2039 12.2129 11.1889 12.2338 11.1751C12.4108 11.057 12.6145 10.985 12.8264 10.9654C13.0383 10.9459 13.2517 10.9794 13.4474 11.0631L13.4578 11.0679L17.2267 12.7567C17.4805 12.8662 17.6921 13.0548 17.8298 13.2945C17.9675 13.5341 18.024 13.812 17.9907 14.0864Z" fill="currentColor"/>
  </symbol>
  <symbol id="human" xmlns="http://www.w3.org/2000/svg" viewBox="0 0 21 20" fill="none">
    <path d="M10.5598 10C13.2938 10 15.5097 7.76172 15.5097 5C15.5097 2.23828 13.2938 0 10.5598 0C7.82575 0 5.60989 2.23828 5.60989 5C5.60989 7.76172 7.82575 10 10.5598 10ZM14.0247 11.25H13.3789C12.5204 11.6484 11.5652 11.875 10.5598 11.875C9.55435 11.875 8.60304 11.6484 7.74067 11.25H7.09486C4.22546 11.25 1.89746 13.6016 1.89746 16.5V18.125C1.89746 19.1602 2.72889 20 3.75368 20H17.3659C18.3907 20 19.2221 19.1602 19.2221 18.125V16.5C19.2221 13.6016 16.8941 11.25 14.0247 11.25Z" fill="#B31942"/>
  </symbol>
  <symbol id="circle" xmlns="http://www.w3.org/2000/svg" width="21" height="20" viewBox="0 0 21 20" fill="none">
    <g clip-path="url(#clip0_369_2663)">
      <path d="M3.45309 18.8206H6.33184V15.9456H3.45309V18.8206ZM1.04621 13.5394V15.9456H3.45246V13.5394H1.04621ZM19.2575 6.91C18.3587 4.01187 16.0387 1.70312 13.14 0.79312C6.49559 -1.28126 0.366211 3.66 0.366211 9.99625H4.10871C4.10871 6.02 8.05371 2.94562 12.2375 4.46125C13.7881 5.01999 15.0306 6.26187 15.5893 7.80875C17.1168 11.9887 14.0387 15.9262 10.0662 15.9337V15.9456H10.0543V19.6881C16.4062 19.6881 21.3356 13.5631 19.2575 6.91062V6.91ZM10.0662 15.9337V12.2112H6.33184V15.9456H10.0543V15.9337H10.0662Z" fill="#B31942"/>
    </g>
    <defs>
      <clipPath id="clip0_369_2663">
        <rect fill="white" transform="translate(0.0546875)"/>
      </clipPath>
    </defs>
  </symbol>
  <symbol id="circle-with-dot" xmlns="http://www.w3.org/2000/svg" viewBox="0 0 21 20" fill="none">
    <path d="M10.0295 0.966675C5.65849 0.970358 1.64019 4.61259 1.22781 8.96943C0.785296 12.6803 2.87366 16.5588 6.28218 18.135C9.44758 19.6821 13.5105 19.1925 16.1358 16.8104C18.8069 14.4989 19.9741 10.5591 18.8008 7.19785C17.685 3.76867 14.392 1.14336 10.7652 0.984463C10.5203 0.968455 10.2748 0.965449 10.0295 0.966675ZM10.2085 3.79609C13.4275 3.70246 16.3787 6.54158 16.4165 9.76189C16.5557 12.7079 14.3424 15.6008 11.4065 16.0947C8.56558 16.6638 5.4147 15.022 4.42029 12.2639C3.34977 9.53643 4.44195 6.08733 7.04768 4.65581C8.00041 4.0964 9.10342 3.79472 10.2085 3.79609ZM10.2121 5.41181C7.23666 5.29884 4.8452 8.5495 5.82881 11.3559C6.60074 14.2299 10.4115 15.559 12.8028 13.7868C15.3213 12.2 15.4641 8.16694 13.0641 6.40594C12.2614 5.76556 11.2388 5.40925 10.2121 5.41181Z" fill="#B31942"/>
  </symbol>
  <symbol id="list" xmlns="http://www.w3.org/2000/svg" viewBox="0 0 21 20" fill="none">
    <g clip-path="url(#clip0_369_2671)">
      <path d="M5.87537 1.38671C5.83182 1.34301 5.78007 1.30834 5.7231 1.28468C5.66612 1.26102 5.60503 1.24884 5.54334 1.24884C5.48164 1.24884 5.42056 1.26102 5.36358 1.28468C5.3066 1.30834 5.25486 1.34301 5.21131 1.38671L2.72381 3.85976L1.83709 2.99569C1.79354 2.95199 1.74179 2.91732 1.68482 2.89366C1.62784 2.87 1.56675 2.85782 1.50506 2.85782C1.44336 2.85782 1.38228 2.87 1.3253 2.89366C1.26832 2.91732 1.21657 2.95199 1.17303 2.99569L0.559745 3.60976C0.516045 3.65331 0.481371 3.70505 0.457712 3.76203C0.434054 3.81901 0.421875 3.88009 0.421875 3.94179C0.421875 4.00348 0.434054 4.06457 0.457712 4.12155C0.481371 4.17852 0.516045 4.23027 0.559745 4.27382L2.41873 6.12538C2.51152 6.21359 2.63465 6.26277 2.76267 6.26277C2.8907 6.26277 3.01383 6.21359 3.10662 6.12538L3.7156 5.51523L6.53592 2.6953C6.62379 2.60736 6.67344 2.48831 6.6741 2.36399C6.67476 2.23968 6.62637 2.12011 6.53943 2.03124L5.87537 1.38671ZM5.87537 7.60507C5.83182 7.56137 5.78007 7.5267 5.7231 7.50304C5.66612 7.47938 5.60503 7.4672 5.54334 7.4672C5.48164 7.4672 5.42056 7.47938 5.36358 7.50304C5.3066 7.5267 5.25486 7.56137 5.21131 7.60507L2.72381 10.0941L1.83709 9.23085C1.79354 9.18715 1.74179 9.15248 1.68482 9.12882C1.62784 9.10516 1.56675 9.09298 1.50506 9.09298C1.44336 9.09298 1.38228 9.10516 1.3253 9.12882C1.26832 9.15248 1.21657 9.18715 1.17303 9.23085L0.559745 9.84374C0.516045 9.88729 0.481371 9.93904 0.457712 9.99601C0.434054 10.053 0.421875 10.1141 0.421875 10.1758C0.421875 10.2375 0.434054 10.2986 0.457712 10.3555C0.481371 10.4125 0.516045 10.4643 0.559745 10.5078L2.41404 12.3633C2.50677 12.4515 2.62983 12.5006 2.75779 12.5006C2.88575 12.5006 3.00882 12.4515 3.10154 12.3633L3.71482 11.7504L6.53514 8.92929C6.62267 8.84196 6.67216 8.72358 6.67282 8.59993C6.67348 8.47629 6.62525 8.35739 6.53865 8.26913L5.87537 7.60507ZM2.92185 14.375C1.88709 14.375 1.02381 15.2148 1.02381 16.25C1.02381 17.2851 1.88787 18.125 2.92185 18.125C3.41913 18.125 3.89605 17.9274 4.24768 17.5758C4.59931 17.2242 4.79685 16.7473 4.79685 16.25C4.79685 15.7527 4.59931 15.2758 4.24768 14.9242C3.89605 14.5725 3.41913 14.375 2.92185 14.375ZM19.7969 15H8.54685C8.38109 15 8.22212 15.0658 8.10491 15.183C7.9877 15.3003 7.92185 15.4592 7.92185 15.625V16.875C7.92185 17.0408 7.9877 17.1997 8.10491 17.3169C8.22212 17.4341 8.38109 17.5 8.54685 17.5H19.7969C19.9626 17.5 20.1216 17.4341 20.2388 17.3169C20.356 17.1997 20.4219 17.0408 20.4219 16.875V15.625C20.4219 15.4592 20.356 15.3003 20.2388 15.183C20.1216 15.0658 19.9626 15 19.7969 15ZM19.7969 2.49999H8.54685C8.38109 2.49999 8.22212 2.56584 8.10491 2.68305C7.9877 2.80026 7.92185 2.95923 7.92185 3.12499V4.37499C7.92185 4.54075 7.9877 4.69972 8.10491 4.81693C8.22212 4.93414 8.38109 4.99999 8.54685 4.99999H19.7969C19.9626 4.99999 20.1216 4.93414 20.2388 4.81693C20.356 4.69972 20.4219 4.54075 20.4219 4.37499V3.12499C20.4219 2.95923 20.356 2.80026 20.2388 2.68305C20.1216 2.56584 19.9626 2.49999 19.7969 2.49999ZM19.7969 8.74999H8.54685C8.38109 8.74999 8.22212 8.81584 8.10491 8.93305C7.9877 9.05026 7.92185 9.20923 7.92185 9.37499V10.625C7.92185 10.7908 7.9877 10.9497 8.10491 11.0669C8.22212 11.1841 8.38109 11.25 8.54685 11.25H19.7969C19.9626 11.25 20.1216 11.1841 20.2388 11.0669C20.356 10.9497 20.4219 10.7908 20.4219 10.625V9.37499C20.4219 9.20923 20.356 9.05026 20.2388 8.93305C20.1216 8.81584 19.9626 8.74999 19.7969 8.74999Z" fill="#B31942"/>
    </g>
    <defs>
      <clipPath id="clip0_369_2671">
        <rect width="20" height="20" fill="white" transform="translate(0.421875)"/>
      </clipPath>
    </defs>
  </symbol>
  <symbol id="science" xmlns="http://www.w3.org/2000/svg" viewBox="0 0 26 26" fill="none">
    <g filter="url(#filter0_d_369_2681)">
      <path d="M11.5947 1.00019C8.21138 1.00304 5.10109 3.82679 4.78189 7.20454C4.43937 10.0815 6.05583 13.0884 8.69413 14.3104C11.1442 15.5099 14.289 15.1303 16.3211 13.2834C18.3887 11.4914 19.2921 8.43697 18.3839 5.83108C17.5202 3.17251 14.9714 1.13717 12.1641 1.01398C11.9746 1.00157 11.7846 0.999239 11.5947 1.00019Z" fill="#B31942"/>
      <path d="M16.2363 12L20.7363 16.5" stroke="#B31942" stroke-width="3"/>
    </g>
    <defs>
      <filter x="-0.263672" y="0" filterUnits="userSpaceOnUse" color-interpolation-filters="sRGB">
        <feFlood flood-opacity="0" result="BackgroundImageFix"/>
        <feColorMatrix in="SourceAlpha" type="matrix" values="0 0 0 0 0 0 0 0 0 0 0 0 0 0 0 0 0 0 127 0" result="hardAlpha"/>
        <feOffset dy="4"/>
        <feGaussianBlur stdDeviation="2"/>
        <feComposite in2="hardAlpha" operator="out"/>
        <feColorMatrix type="matrix" values="0 0 0 0 0 0 0 0 0 0 0 0 0 0 0 0 0 0 0.25 0"/>
        <feBlend mode="normal" in2="BackgroundImageFix" result="effect1_dropShadow_369_2681"/>
        <feBlend mode="normal" in="SourceGraphic" in2="effect1_dropShadow_369_2681" result="shape"/>
      </filter>
    </defs>
  </symbol>
  <symbol id="wallet" xmlns="http://www.w3.org/2000/svg" viewBox="0 0 12 12" fill="none">
    <path d="M11.3721 8.54792C11.2281 10.1499 10.0701 11.1999 8.39015 11.1999H2.9902C1.33422 11.1999 -0.00976562 9.85591 -0.00976562 8.19993V3.99997C-0.00976562 2.36799 0.974225 1.228 2.50421 1.036C2.66021 1.012 2.82221 1 2.9902 1H8.39015C8.54615 1 8.69615 1.006 8.84015 1.03C10.2741 1.198 11.2461 2.19999 11.3721 3.65197C11.3901 3.82597 11.2461 3.96997 11.0721 3.96997H10.1421C9.56614 3.96997 9.03214 4.19197 8.64815 4.58796C8.19215 5.03196 7.96415 5.65595 8.01815 6.27995C8.11415 7.37194 9.07414 8.22993 10.2141 8.22993H11.0721C11.2461 8.22993 11.3901 8.37393 11.3721 8.54792Z" fill="#B31942"/>
    <path d="M11.9905 5.48149V6.71748C11.9905 7.04747 11.7265 7.31747 11.3905 7.32947H10.2145C9.56655 7.32947 8.97256 6.85548 8.91856 6.20748C8.88256 5.82949 9.02656 5.47549 9.27856 5.22949C9.50055 5.00149 9.80655 4.86951 10.1425 4.86951H11.3905C11.7265 4.88151 11.9905 5.15149 11.9905 5.48149Z" fill="#B31942"/>
  </symbol>
  <symbol id="gavel" xmlns="http://www.w3.org/2000/svg" viewBox="0 0 12 12" fill="none">
    <g clip-path="url(#clip0_371_2728)">
      <path d="M11.8353 4.67253L11.3049 4.14221C11.0853 3.92253 10.7291 3.92253 10.5094 4.14221L10.3769 4.2748L7.72518 1.62315L7.85777 1.49057C8.07745 1.27089 8.07745 0.914729 7.85777 0.695073L7.32745 0.164729C7.10777 -0.0549504 6.75161 -0.0549504 6.53195 0.164729L3.61513 3.08155C3.39546 3.30123 3.39546 3.65739 3.61513 3.87704L4.14546 4.40736C4.36513 4.62704 4.72129 4.62704 4.94095 4.40736L5.07353 4.27478L6.00161 5.20285L4.10224 7.10223L3.96965 6.96964C3.67675 6.67675 3.20188 6.67675 2.90899 6.96964L0.219674 9.659C-0.0732246 9.9519 -0.0732246 10.4268 0.219674 10.7197L1.28034 11.7803C1.57324 12.0732 2.0481 12.0732 2.341 11.7803L5.03034 9.09099C5.32324 8.7981 5.32324 8.32323 5.03034 8.03033L4.89775 7.89775L6.79713 5.99837L7.72521 6.92645L7.59262 7.05903C7.37294 7.27871 7.37294 7.63487 7.59262 7.85453L8.12294 8.38485C8.34262 8.60453 8.69878 8.60453 8.91843 8.38485L11.8353 5.46803C12.0549 5.24837 12.0549 4.89221 11.8353 4.67253Z" fill="#B31942"/>
    </g>
    <defs>
      <clipPath id="clip0_371_2728">
        <rect width="12" height="12" fill="white"/>
      </clipPath>
    </defs>
  </symbol>
  <symbol id="wrench" xmlns="http://www.w3.org/2000/svg" viewBox="0 0 12 12" fill="none">
    <path d="M9.87717 6.8865C9.39547 7.365 8.78129 7.68797 8.11405 7.81362C7.44681 7.93927 6.75722 7.86183 6.13447 7.59132L3.69498 10.4156C3.68901 10.4225 3.6828 10.4292 3.67635 10.4357C3.39499 10.7167 3.01354 10.8746 2.61584 10.8745C2.21815 10.8744 1.83677 10.7164 1.55556 10.4351C1.27435 10.1539 1.11632 9.77256 1.11621 9.37486C1.11611 8.97717 1.27394 8.59571 1.555 8.31435C1.56146 8.3079 1.56816 8.30167 1.57505 8.29568L4.39941 5.85616C4.12805 5.2371 4.04876 4.55084 4.17179 3.88621C4.29483 3.22158 4.61452 2.60918 5.0895 2.12828C5.56448 1.64738 6.17287 1.32012 6.83592 1.18886C7.49898 1.0576 8.18617 1.12839 8.80854 1.39205C8.86509 1.41604 8.91488 1.45355 8.95354 1.50128C8.9922 1.54902 9.01855 1.60551 9.03028 1.6658C9.04201 1.7261 9.03875 1.78835 9.0208 1.84709C9.00284 1.90584 8.97074 1.95927 8.92731 2.00271L7.10227 3.82772L7.27906 4.71162L8.16294 4.88841L9.988 3.06335C10.0314 3.01993 10.0849 2.98783 10.1436 2.96989C10.2024 2.95194 10.2646 2.94869 10.3249 2.96042C10.3852 2.97215 10.4417 2.9985 10.4894 3.03715C10.5371 3.07581 10.5746 3.1256 10.5986 3.18214C10.8628 3.8009 10.9353 4.4847 10.8067 5.14509C10.678 5.80548 10.3543 6.4121 9.87717 6.8865Z" fill="#B31942"/>
  </symbol>
  <symbol id="flask" xmlns="http://www.w3.org/2000/svg" viewBox="0 0 11 12" fill="none">
    <g clip-path="url(#clip0_371_2731)">
      <path d="M10.2467 9.45703L7.49978 5.03906V1.5H7.68728C7.999 1.5 8.24978 1.24922 8.24978 0.9375V0.5625C8.24978 0.250781 7.999 0 7.68728 0H2.81228C2.50056 0 2.24978 0.250781 2.24978 0.5625V0.9375C2.24978 1.24922 2.50056 1.5 2.81228 1.5H2.99978V5.03906L0.252905 9.45703C-0.433814 10.5609 0.358374 12 1.6615 12H8.83806C10.1435 12 10.9334 10.5586 10.2467 9.45703ZM3.23181 7.5L4.3615 5.68125C4.44822 5.55937 4.49744 5.40938 4.49744 5.25V1.5H5.99744V5.25C5.99744 5.41172 6.049 5.55937 6.13337 5.68125L7.26306 7.5H3.23181Z" fill="#B31942"/>
    </g>
    <defs>
      <clipPath id="clip0_371_2731">
        <rect width="10.5" height="12" fill="white"/>
      </clipPath>
    </defs>
  </symbol>
</svg>